<svg width="1776" height="171" viewBox="0 0 1776 171" fill="none" xmlns="http://www.w3.org/2000/svg">
<g clip-path="url(#clip0_2262_346)">
<path d="M350.6 0C313.2 0 277.2 14.3 249.2 37C221.1 14.3 185.2 0 147.7 0C59.1 0 0 44.4 0 118.3V171H112.3V136.1C112.3 109 128.5 90.7 152.7 90.7C176.9 90.7 193.1 108.9 193.1 136.1V171H305.4V136.1C305.4 109 321.7 90.7 345.8 90.7C369.9 90.7 386.2 108.9 386.2 136.1V171H498.5V118.3C498.5 44.4 439.3 0 350.6 0Z" fill="#F56242"/>
<path d="M1605.9 0C1504 0 1436 52.8 1436 132.6V171H1549.3V137.5C1549.3 109.4 1571.9 90.7 1605.9 90.7C1639.9 90.7 1662.5 109.4 1662.5 137.5V171H1775.8V132.6C1775.8 52.8 1707.8 0 1605.9 0Z" fill="#F56242"/>
<path d="M1177.4 0C1061.7 0 1003 75.9 1003 170.6V171H1116.3V170.6C1116.3 128.7 1134.5 90.7 1177.4 90.7C1220.3 90.7 1238.5 128.7 1238.5 170.6V171H1351.8V170.6C1351.7 75.9 1293.1 0 1177.4 0Z" fill="#F56242"/>
<path d="M756.7 0C641 0 582.4 75.9 582.4 170.6V171H695.7V170.6C695.7 128.7 713.9 90.7 756.8 90.7C799.7 90.7 817.9 128.7 817.9 170.6V171H931.2V170.6C931.2 75.9 872.5 0 756.7 0Z" fill="#F56242"/>
</g>
<defs>
<clipPath id="clip0_2262_346">
<rect width="1776" height="171" fill="white"/>
</clipPath>
</defs>
</svg>
