<svg width="1776" height="166" viewBox="0 0 1776 166" fill="none" xmlns="http://www.w3.org/2000/svg">
<path d="M0 2.2223H41.3346L86.0027 111.337H87.7805L132.449 2.2223H173.783V163.116H141.338V57.7796H140.005L98.003 162.449H75.7802L33.7788 57.3352H32.4455V163.116H0V2.2223ZM348.234 82.6693C348.234 135.116 315.566 165.339 273.12 165.339C230.23 165.339 197.784 134.893 197.784 82.6693C197.784 30.2232 230.23 0 273.12 0C315.566 0 348.234 30.2232 348.234 82.6693ZM314.232 82.6693C314.232 48.2238 298.009 29.5564 273.12 29.5564C248.23 29.5564 231.785 48.2238 231.785 82.6693C231.785 117.115 248.23 135.782 273.12 135.782C298.009 135.782 314.232 117.115 314.232 82.6693ZM519.572 82.6693C519.572 135.116 486.904 165.339 444.458 165.339C401.568 165.339 369.123 134.893 369.123 82.6693C369.123 30.2232 401.568 0 444.458 0C486.904 0 519.572 30.2232 519.572 82.6693ZM485.571 82.6693C485.571 48.2238 469.348 29.5564 444.458 29.5564C419.569 29.5564 403.124 48.2238 403.124 82.6693C403.124 117.115 419.569 135.782 444.458 135.782C469.348 135.782 485.571 117.115 485.571 82.6693ZM677.799 2.2223V163.116H648.91L578.241 60.8908H576.907V163.116H543.572V2.2223H572.907L643.131 104.447H644.687V2.2223H677.799ZM779.135 69.5577V95.7807H705.8V69.5577H779.135ZM871.361 2.2223H904.473V114.448C904.473 145.783 882.472 165.339 850.026 165.339C820.915 165.339 798.025 150.004 798.247 118.226H831.582C831.804 130.893 839.582 138.449 851.582 138.449C864.25 138.449 871.361 130.227 871.361 114.448V2.2223ZM964.919 2.2223V163.116H931.585V2.2223H964.919ZM982.252 2.2223H1019.81L1056.92 71.5578H1058.48L1095.37 2.2223H1132.93L1074.26 105.781V163.116H1040.92V105.781L982.252 2.2223ZM1287.82 82.6693C1287.82 135.116 1255.15 165.339 1212.71 165.339C1169.81 165.339 1137.37 134.893 1137.37 82.6693C1137.37 30.2232 1169.81 0 1212.71 0C1255.15 0 1287.82 30.2232 1287.82 82.6693ZM1253.82 82.6693C1253.82 48.2238 1237.6 29.5564 1212.71 29.5564C1187.82 29.5564 1171.37 48.2238 1171.37 82.6693C1171.37 117.115 1187.82 135.782 1212.71 135.782C1237.6 135.782 1253.82 117.115 1253.82 82.6693ZM1411.37 2.2223H1444.93V106.67C1444.93 142.004 1418.26 165.339 1378.26 165.339C1338.26 165.339 1311.82 142.004 1311.82 106.67V2.2223H1345.15V104.003C1345.15 122.448 1358.27 136.005 1378.26 136.005C1398.49 136.005 1411.37 122.448 1411.37 104.003V2.2223ZM1606.27 2.2223V163.116H1577.38L1506.72 60.8908H1505.38V163.116H1472.05V2.2223H1501.38L1571.61 104.447H1573.16V2.2223H1606.27ZM1740.28 54.0017C1735.83 38.8901 1723.61 29.5564 1706.05 29.5564C1681.16 29.5564 1664.27 48.6682 1664.27 82.4471C1664.27 116.448 1680.72 135.782 1706.27 135.782C1729.27 135.782 1742.95 122.782 1743.38 102.448H1708.5V77.3357H1775.62V97.3363C1775.62 139.56 1746.72 165.339 1706.05 165.339C1660.94 165.339 1630.27 133.782 1630.27 82.8915C1630.27 30.6677 1662.94 0 1705.38 0C1741.61 0 1769.61 22.223 1774.06 54.0017H1740.28Z" fill="#F56242"/>
</svg>
