<svg width="1776" height="171" viewBox="0 0 1776 171" fill="none" xmlns="http://www.w3.org/2000/svg">
<g clip-path="url(#clip0_2375_275)">
<path d="M0 2.27272H30.4545L82.4995 129.773H84.5452L136.591 2.27272H167.045V166.818H143.182V47.9545H141.591L93.409 166.591H73.6365L25.2272 47.7272H23.8636V166.818H0V2.27272ZM343.636 84.5452C343.636 137.045 312.045 169.09 269.545 169.09C226.591 169.09 195.227 137.045 195.227 84.5452C195.227 31.8182 226.591 0 269.545 0C312.045 0 343.636 31.8182 343.636 84.5452ZM318.863 84.5452C318.863 44.5454 297.727 22.9545 269.545 22.9545C241.136 22.9545 219.999 44.5454 219.999 84.5452C219.999 124.546 241.136 146.136 269.545 146.136C297.727 146.136 318.863 124.546 318.863 84.5452ZM514.772 84.5452C514.772 137.045 483.181 169.09 440.681 169.09C397.727 169.09 366.363 137.045 366.363 84.5452C366.363 31.8182 397.727 0 440.681 0C483.181 0 514.772 31.8182 514.772 84.5452ZM489.999 84.5452C489.999 44.5454 468.863 22.9545 440.681 22.9545C412.272 22.9545 391.136 44.5454 391.136 84.5452C391.136 124.546 412.272 146.136 440.681 146.136C468.863 146.136 489.999 124.546 489.999 84.5452ZM675.681 2.27272V166.818H652.726L569.318 46.5908H567.953V166.818H542.954V2.27272H566.135L649.544 122.727H651.135V2.27272H675.681ZM780.001 74.0905V95H707.044V74.0905H780.001ZM875.226 2.27272H900.229V118.863C900.229 150.681 880.225 169.09 849.999 169.09C822.043 169.09 801.134 153.409 801.134 125.454H825.907C826.137 139.318 836.366 147.727 850.681 147.727C866.362 147.727 875.226 137.727 875.226 118.863V2.27272ZM958.634 2.27272V166.818H933.637V2.27272H958.634ZM979.313 2.27272H1007.73L1050.45 76.8178H1052.27L1095.22 2.27272H1123.63L1063.86 102.273V166.818H1038.86V102.273L979.313 2.27272ZM1278.63 84.5452C1278.63 137.045 1247.04 169.09 1204.54 169.09C1161.59 169.09 1130.23 137.045 1130.23 84.5452C1130.23 31.8182 1161.59 0 1204.54 0C1247.04 0 1278.63 31.8182 1278.63 84.5452ZM1253.86 84.5452C1253.86 44.5454 1232.73 22.9545 1204.54 22.9545C1176.13 22.9545 1155 44.5454 1155 84.5452C1155 124.546 1176.13 146.136 1204.54 146.136C1232.73 146.136 1253.86 124.546 1253.86 84.5452ZM1412.49 2.27272H1437.5V110.454C1437.5 145 1411.59 169.545 1372.27 169.545C1332.5 169.545 1306.82 145 1306.82 110.454V2.27272H1331.82V108.409C1331.82 130.682 1347.27 146.818 1372.27 146.818C1397.04 146.818 1412.49 130.682 1412.49 108.409V2.27272ZM1603.86 2.27272V166.818H1580.91L1497.5 46.5908H1496.13V166.818H1471.14V2.27272H1494.32L1577.72 122.727H1579.32V2.27272H1603.86ZM1748.63 54.3181C1742.5 34.7727 1727.72 22.9545 1705.91 22.9545C1678.18 22.9545 1656.81 44.7726 1656.81 84.5452C1656.81 124.318 1677.95 146.136 1707.04 146.136C1733.29 146.136 1750.68 129.546 1751.13 103.181H1710.68V82.4995H1775.45V101.136C1775.45 142.727 1746.82 169.09 1706.81 169.09C1662.27 169.09 1632.04 136.591 1632.04 84.5452C1632.04 32.0454 1663.18 0 1705.68 0C1741.36 0 1768.63 22.2727 1774.31 54.3181H1748.63Z" fill="#F56242"/>
</g>
<defs>
<clipPath id="clip0_2375_275">
<rect width="1775.62" height="170.235" fill="white"/>
</clipPath>
</defs>
</svg>
