<svg width="24" height="24" viewBox="0 0 24 24" fill="none" xmlns="http://www.w3.org/2000/svg">
<path d="M11.8319 14.5023L9.4747 16.8595L7.21189 14.5967L9.56906 12.2395L11.8319 14.5023Z" fill="#FBF6F3"/>
<path d="M14.1887 12.1455L11.8319 14.5023L9.56906 12.2395L11.9259 9.88267L14.1887 12.1455Z" fill="#FBF6F3"/>
<path d="M18.8083 12.0509L21.0711 14.3137L18.7139 16.6709L16.4511 14.4081L18.8083 12.0509Z" fill="#FBF6F3"/>
<path d="M16.5455 9.78809L18.8083 12.0509L16.4511 14.4081L14.1887 12.1455L16.5455 9.78809Z" fill="#FBF6F3"/>
<path d="M12.0202 5.26279L14.283 7.5256L11.9259 9.88267L9.66299 7.61996L12.0202 5.26279Z" fill="#FBF6F3"/>
<path d="M9.75736 2.99999L12.0202 5.26279L9.66299 7.61996L7.40019 5.35716L9.75736 2.99999Z" fill="#FBF6F3"/>
</svg>
