<svg width="24" height="24" viewBox="0 0 24 24" fill="none" xmlns="http://www.w3.org/2000/svg">
<g clip-path="url(#clip0_2065_579)">
<path d="M9.02542 7.26229L6.62119 4.85806L4.35838 7.12087L6.76261 9.5251L9.02542 7.26229Z" fill="#F56242"/>
<path d="M11.4298 9.66663L9.02542 7.26229L6.76261 9.5251L9.16695 11.9294L11.4298 9.66663Z" fill="#F56242"/>
<path d="M16.2381 14.475L13.8339 12.0708L11.5711 14.3336L13.9753 16.7378L16.2381 14.475Z" fill="#F56242"/>
<path d="M18.642 16.8789L16.2381 14.475L13.9753 16.7378L16.3792 19.1417L18.642 16.8789Z" fill="#F56242"/>
<path d="M16.0964 9.80828L18.3592 7.54547L15.955 5.14124L13.6922 7.40405L16.0964 9.80828Z" fill="#F56242"/>
<path d="M13.8339 12.0708L16.0964 9.80828L13.6922 7.40405L11.4298 9.66663L13.8339 12.0708Z" fill="#F56242"/>
<path d="M9.30829 16.5964L11.5711 14.3336L9.16695 11.9294L6.90406 14.1921L9.30829 16.5964Z" fill="#F56242"/>
<path d="M7.04549 18.8592L9.30829 16.5964L6.90406 14.1921L4.64125 16.4549L7.04549 18.8592Z" fill="#F56242"/>
</g>
<defs>
<clipPath id="clip0_2065_579">
<rect width="24" height="24" fill="white"/>
</clipPath>
</defs>
</svg>
