<svg width="24" height="24" viewBox="0 0 24 24" fill="none" xmlns="http://www.w3.org/2000/svg">
<path d="M11.6626 4.9638L10.327 6.29949L11.6402 7.61274L12.9759 6.27705L11.6626 4.9638Z" fill="#F56242"/>
<path d="M9.01393 4.98607L7.67824 6.32176L8.9915 7.63501L10.327 6.29949L9.01393 4.98607Z" fill="#F56242"/>
<path d="M16.8931 12.8652L15.5574 14.2009L16.8707 15.5142L18.2064 14.1785L16.8931 12.8652Z" fill="#F56242"/>
<path d="M14.3114 4.94118L12.9759 6.27705L14.2889 7.59013L15.6246 6.25444L14.3114 4.94118Z" fill="#F56242"/>
<path d="M6.27527 15.6039L4.93958 16.9396L6.25284 18.2528L7.58853 16.9171L6.27527 15.6039Z" fill="#F56242"/>
<path d="M7.61094 14.2682L6.27527 15.6039L7.58853 16.9171L8.92419 15.5815L7.61094 14.2682Z" fill="#F56242"/>
<path d="M8.94643 12.9327L7.61094 14.2682L8.92419 15.5815L10.2597 14.246L8.94643 12.9327Z" fill="#F56242"/>
<path d="M10.2822 11.597L8.94643 12.9327L10.2597 14.246L11.5954 12.9102L10.2822 11.597Z" fill="#F56242"/>
<path d="M11.6178 10.2613L10.2822 11.597L11.5954 12.9102L12.9311 11.5746L11.6178 10.2613Z" fill="#F56242"/>
<path d="M12.9535 8.92565L11.6178 10.2613L12.9311 11.5746L14.2668 10.2389L12.9535 8.92565Z" fill="#F56242"/>
<path d="M14.2889 7.59013L12.9535 8.92565L14.2668 10.2389L15.6023 8.90341L14.2889 7.59013Z" fill="#F56242"/>
<path d="M15.6246 6.25444L14.2889 7.59013L15.6023 8.90341L16.9379 7.56775L15.6246 6.25444Z" fill="#F56242"/>
<path d="M16.9604 4.91874L15.6246 6.25444L16.9379 7.56775L18.2737 6.232L16.9604 4.91874Z" fill="#F56242"/>
<path d="M16.9379 7.56775L15.6023 8.90341L16.9155 10.2167L18.2512 8.88097L16.9379 7.56775Z" fill="#F56242"/>
<path d="M16.9155 10.2167L15.5798 11.5524L16.8931 12.8652L18.2288 11.5299L16.9155 10.2167Z" fill="#F56242"/>
</svg>
