<svg width="24" height="24" viewBox="0 0 24 24" fill="none" xmlns="http://www.w3.org/2000/svg">
<path d="M11.8319 9.88247L9.4747 7.5253L7.21189 9.78811L9.56906 12.1453L11.8319 9.88247Z" fill="#FBF6F3"/>
<path d="M14.1887 12.2393L11.8319 9.88247L9.56906 12.1453L11.9259 14.5021L14.1887 12.2393Z" fill="#FBF6F3"/>
<path d="M18.8083 12.3339L21.0711 10.0711L18.7139 7.7139L16.4511 9.97671L18.8083 12.3339Z" fill="#FBF6F3"/>
<path d="M16.5455 14.5967L18.8083 12.3339L16.4511 9.97671L14.1887 12.2393L16.5455 14.5967Z" fill="#FBF6F3"/>
<path d="M12.0202 19.122L14.283 16.8592L11.9259 14.5021L9.66299 16.7648L12.0202 19.122Z" fill="#FBF6F3"/>
<path d="M9.75736 21.3848L12.0202 19.122L9.66299 16.7648L7.40019 19.0276L9.75736 21.3848Z" fill="#FBF6F3"/>
</svg>
