<svg width="24" height="24" viewBox="0 0 24 24" fill="none" xmlns="http://www.w3.org/2000/svg">
<path d="M11.9255 14.5023L14.2826 16.8595L16.5454 14.5967L14.1883 12.2395L11.9255 14.5023Z" fill="#FBF6F3"/>
<path d="M9.56863 12.1455L11.9255 14.5023L14.1883 12.2395L11.8314 9.88267L9.56863 12.1455Z" fill="#FBF6F3"/>
<path d="M4.94907 12.0509L2.68626 14.3137L5.04343 16.6709L7.30624 14.4081L4.94907 12.0509Z" fill="#FBF6F3"/>
<path d="M7.21187 9.78809L4.94907 12.0509L7.30624 14.4081L9.56863 12.1455L7.21187 9.78809Z" fill="#FBF6F3"/>
<path d="M11.7372 5.26279L9.47435 7.5256L11.8314 9.88267L14.0943 7.61996L11.7372 5.26279Z" fill="#FBF6F3"/>
<path d="M14 2.99999L11.7372 5.26279L14.0943 7.61996L16.3571 5.35716L14 2.99999Z" fill="#FBF6F3"/>
</svg>
