<svg width="24" height="24" viewBox="0 0 24 24" fill="none" xmlns="http://www.w3.org/2000/svg">
<path d="M16.2221 6.85718H14.3331V8.7144H16.2221V6.85718Z" fill="#F56242"/>
<path d="M14.3334 5H12.4445V6.85722L14.3331 6.85718L14.3334 5Z" fill="#F56242"/>
<path d="M14.3334 16.1428H12.4445V18H14.3334V16.1428Z" fill="#F56242"/>
<path d="M18.111 8.71411L16.2221 8.7144L16.222 10.5713H18.111V8.71411Z" fill="#F56242"/>
<path d="M4.88895 10.5714H3V12.4286H4.88895V10.5714Z" fill="#F56242"/>
<path d="M6.77787 10.5714H4.88895V12.4286H6.77787V10.5714Z" fill="#F56242"/>
<path d="M8.66654 10.5714H6.77787V12.4286H8.66654V10.5714Z" fill="#F56242"/>
<path d="M10.5556 10.5714H8.66654V12.4286H10.5556V10.5714Z" fill="#F56242"/>
<path d="M12.4445 10.5714H10.5556V12.4286H12.4445V10.5714Z" fill="#F56242"/>
<path d="M14.3334 10.5714H12.4445V12.4286H14.3334V10.5714Z" fill="#F56242"/>
<path d="M16.222 10.5713L14.3334 10.5714V12.4286H16.2221L16.222 10.5713Z" fill="#F56242"/>
<path d="M18.111 10.5713H16.222L16.2221 12.4286H18.111V10.5713Z" fill="#F56242"/>
<path d="M20 10.5714L18.111 10.5713V12.4286H20V10.5714Z" fill="#F56242"/>
<path d="M18.111 12.4286H16.2221L16.222 14.2858H18.111V12.4286Z" fill="#F56242"/>
<path d="M16.222 14.2858L14.3331 14.2859L14.3334 16.1428L16.2221 16.1431L16.222 14.2858Z" fill="#F56242"/>
</svg>
