<svg width="24" height="24" viewBox="0 0 24 24" fill="none" xmlns="http://www.w3.org/2000/svg">
<path d="M11.9255 9.88247L14.2826 7.5253L16.5454 9.78811L14.1883 12.1453L11.9255 9.88247Z" fill="#FBF6F3"/>
<path d="M9.56863 12.2393L11.9255 9.88247L14.1883 12.1453L11.8314 14.5021L9.56863 12.2393Z" fill="#FBF6F3"/>
<path d="M4.94907 12.3339L2.68626 10.0711L5.04343 7.7139L7.30624 9.97671L4.94907 12.3339Z" fill="#FBF6F3"/>
<path d="M7.21187 14.5967L4.94907 12.3339L7.30624 9.97671L9.56863 12.2393L7.21187 14.5967Z" fill="#FBF6F3"/>
<path d="M11.7372 19.122L9.47435 16.8592L11.8314 14.5021L14.0943 16.7648L11.7372 19.122Z" fill="#FBF6F3"/>
<path d="M14 21.3848L11.7372 19.122L14.0943 16.7648L16.3571 19.0276L14 21.3848Z" fill="#FBF6F3"/>
</svg>
