<svg width="149" height="107" viewBox="0 0 149 107" fill="none" xmlns="http://www.w3.org/2000/svg">
<g clip-path="url(#clip0_2117_33)">
<path d="M143.569 46.5217V40.2155H138.24V33.7024H133.014V27.1894H127.48V20.2628H121.639V13.1295H115.9V5.78937H109.752V0H93.0481V5.78937H88.2318V20.9865H94.4828V28.1198H100.836V35.2531H106.78V41.5594H65.2772H55.4395H4.91884V46.5217H0V61.4087H4.91884V66.371H55.4395H65.2772H106.78V71.6435H100.836V78.7768H94.4828V86.0135H88.2318V101.004H93.0481V107H109.752V101.004H115.9V93.8705H121.639V86.8406H127.48V79.8106H133.014V73.2976H138.24V66.6812H143.569V60.3749H149V46.5217H143.569Z" fill="#F56242"/>
</g>
<defs>
<clipPath id="clip0_2117_33">
<rect width="149" height="107" fill="white"/>
</clipPath>
</defs>
</svg>
