<svg width="52" height="52" viewBox="0 0 52 52" fill="none" xmlns="http://www.w3.org/2000/svg">
<path d="M26 0C11.6402 0 0 11.6402 0 26C0 40.3598 11.6402 52 26 52C40.3598 52 52 40.3598 52 26C52 11.6402 40.3598 0 26 0ZM26 3.7674C31.6641 3.7674 36.8342 5.8864 40.7602 9.373C37.8755 13.1781 33.4932 15.7118 29.1018 17.4265C26.7085 13.0481 23.7614 8.4318 20.7623 4.3875C22.4406 3.9819 24.1943 3.7674 26 3.7674ZM16.5412 5.8747C19.4389 10.2102 22.2469 14.2311 24.8131 18.7824C18.3248 20.4633 10.9954 21.4721 4.22373 21.489C5.65113 14.5626 10.3038 8.8114 16.5412 5.8747ZM43.2263 11.9444C46.3281 15.7391 48.1962 20.579 48.2326 25.8531C43.0898 24.8404 37.9743 24.5739 32.7678 25.0991C32.1815 23.6392 31.473 22.2534 30.7931 20.7571C35.282 18.9462 40.0816 15.847 43.2263 11.9444ZM26.6188 22.2222C27.1752 23.4065 27.82 24.661 28.4245 25.9441C21.1835 29.1369 13.4823 33.4035 9.48352 40.8837C5.93062 36.9434 3.76741 31.7226 3.76741 26C3.76741 25.7829 3.77131 25.5658 3.77781 25.35C11.5323 25.3123 19.1438 24.3425 26.6188 22.2222ZM48.1572 27.8512C48.1507 27.937 48.1429 28.0241 48.1338 28.1099C48.1429 28.0241 48.1507 27.9383 48.1572 27.8512ZM38.3669 28.2841C41.5987 28.2737 44.9384 28.7248 47.9557 29.5191C46.969 35.7279 43.4096 41.0826 38.4046 44.4522C37.2112 39.0247 36.0737 33.8312 34.0626 28.5948C35.4497 28.3881 36.8979 28.288 38.3669 28.2841ZM48.0714 28.6871C48.0558 28.8145 48.0415 28.9393 48.0233 29.0654C48.0415 28.938 48.0571 28.8132 48.0714 28.6871ZM29.9481 29.6114C31.9982 34.905 33.6063 40.768 34.6853 46.4737C32.0164 47.6073 29.0823 48.2339 26 48.2339C20.8585 48.2339 16.1239 46.4867 12.3578 43.5552C16.3839 37.0227 22.62 32.0801 29.9481 29.6114Z" fill="#F56242"/>
</svg>
