<svg width="150" height="116" viewBox="0 0 150 116" fill="none" xmlns="http://www.w3.org/2000/svg">
<path d="M67.2854 83.6363C67.2854 92.8388 64.1778 100.417 57.9627 106.372C52.0178 112.327 44.0462 115.304 34.048 115.304C25.4009 115.304 18.1049 112.868 12.16 107.996C6.21512 102.853 2.70222 96.3572 1.62133 88.5083C0.540445 83.9068 0 79.0348 0 73.8923C0 61.4413 3.24267 49.8026 9.72803 38.976C14.8622 30.044 21.3476 22.0593 29.184 15.022C37.0204 7.98463 44.1814 2.97733 50.6667 0L63.232 16.24C57.0169 20.8413 51.7476 26.39 47.424 32.886C43.1004 39.1113 39.9929 45.7426 38.1014 52.78C47.0187 53.8627 54.0444 57.246 59.1787 62.93C64.5831 68.614 67.2854 75.5163 67.2854 83.6363ZM149.162 83.6363C149.162 92.8388 146.055 100.417 139.84 106.372C133.895 112.327 125.924 115.304 115.925 115.304C107.279 115.304 99.9825 112.868 94.0372 107.996C88.0925 102.853 84.5799 96.3572 83.4985 88.5083C82.4178 83.9068 81.8772 79.0348 81.8772 73.8923C81.8772 61.4413 85.1198 49.8026 91.6051 38.976C96.7399 30.044 103.225 22.0593 111.061 15.022C118.898 7.98463 126.058 2.97733 132.544 0L145.109 16.24C138.895 20.8413 133.625 26.39 129.301 32.886C124.978 39.1113 121.871 45.7426 119.978 52.78C128.896 53.8627 135.922 57.246 141.056 62.93C146.461 68.614 149.162 75.5163 149.162 83.6363Z" fill="#F56242"/>
</svg>
