<svg width="59" height="56" viewBox="0 0 59 56" fill="none" xmlns="http://www.w3.org/2000/svg">
<path d="M13.4146 55.9987V18.2142H0.88041V55.9987H13.4159H13.4146ZM7.15014 13.0563C11.5202 13.0563 14.2408 10.1549 14.2408 6.52897C14.159 2.82042 11.5202 0 7.23325 0C2.94338 0 0.141602 2.82042 0.141602 6.52864C0.141602 10.1546 2.86125 13.056 7.06801 13.056H7.14916L7.15014 13.0563ZM20.3525 55.9987H32.8857V34.9004C32.8857 33.7726 32.9675 32.6419 33.2987 31.8364C34.2043 29.5792 36.2667 27.2427 39.73 27.2427C44.2643 27.2427 46.0793 30.7073 46.0793 35.7872V55.9987H58.6122V34.3342C58.6122 22.729 52.4295 17.3284 44.1832 17.3284C37.4223 17.3284 34.453 21.1147 32.8033 23.6935H32.8867V18.2156H20.3532C20.5168 21.7602 20.3522 56 20.3522 56L20.3525 55.9987Z" fill="#F56242"/>
</svg>
