<svg width="54" height="36" viewBox="0 0 54 36" fill="none" xmlns="http://www.w3.org/2000/svg">
<g clip-path="url(#clip0_2260_36)">
<path d="M12.096 14.6425V35.5453H0V12.7326C0 4.77473 6.36632 0 15.9158 0C19.9478 0 23.8207 1.53852 26.8447 3.97894C29.8687 1.53852 33.7415 0 37.7735 0C47.323 0 53.6893 4.77473 53.6893 12.7326V35.5453H41.5933V14.6425C41.5933 11.7246 39.8426 9.76168 37.243 9.76168C34.6434 9.76168 32.8927 11.7246 32.8927 14.6425V35.5453H20.7967V14.6425C20.7967 11.7246 19.0459 9.76168 16.4463 9.76168C13.8468 9.76168 12.096 11.7246 12.096 14.6425Z" fill="#F56242"/>
</g>
<defs>
<clipPath id="clip0_2260_36">
<rect width="54" height="36" fill="white"/>
</clipPath>
</defs>
</svg>
