<svg width="36" height="36" viewBox="0 0 36 36" fill="none" xmlns="http://www.w3.org/2000/svg">
<path d="M19.0388 15.5785H20.8755V12.535H22.6708V9.05145H24.387V5.76808H26.1823V1.88241H28.497V0H34.0843V1.92206H36V34.0383H34.0843V36H29.0559V34.0383H27.1007V21.5845H25.7439V23.8672H24.547V26.3104H23.1902V28.8329H21.6339V31.5158H19.9176V33.3586H16.0861V31.5158H14.4094V28.8329H12.8531V26.3104H11.4963V23.8672H10.2599V21.5845H8.90308V34.0383H6.98735V36H1.91573V34.0383H0V1.92206H1.91573V0H7.50298V1.88241H9.81767V5.76619H11.613V9.04956H13.3292V12.5331H15.1245V15.5767H16.9612V18.1803H19.0369V15.5767L19.0388 15.5785Z" fill="#F56242"/>
</svg>
