<svg width="1775" height="250" viewBox="0 0 1775 250" fill="none" xmlns="http://www.w3.org/2000/svg">
<mask id="mask0_2184_36" style="mask-type:alpha" maskUnits="userSpaceOnUse" x="0" y="0" width="1775" height="250">
<rect width="1775" height="250" fill="#F56242"/>
</mask>
<g mask="url(#mask0_2184_36)">
<path d="M262.071 252.353V216.538H287.417V174.662H312.212V126.725H335.905V81.543H360.7V28.096H392.658V2.19897H469.798V28.647H496.246V470.549H469.798V497.548H400.372V470.549H373.373V299.188H354.639V330.595H338.109V364.206H319.375V398.919H297.886V435.836H274.193V461.182H221.297V435.836H198.155V398.919H176.666V364.206H157.932V330.595H140.851V299.188H122.117V470.549H95.669V497.548H25.692V470.549H-0.755998V28.647H25.692V2.19897H102.832V28.096H134.79V81.543H159.585V126.725H183.278V174.662H208.073V216.538H233.419V252.353H262.071ZM801.629 364.206V236.374H774.63V213.783H727.795V236.374H701.347V364.206H727.795V386.797H774.63V364.206H801.629ZM580.678 414.898V185.682H603.269V155.377H627.513V128.378H652.859V103.032H849.566V128.378H874.912V155.377H899.156V185.682H922.298V414.898H899.156V445.203H874.912V472.202H849.566V497.548H652.859V472.202H627.513V445.203H603.269V414.898H580.678ZM1224.39 364.206V236.374H1197.39V213.783H1150.56V236.374H1124.11V364.206H1150.56V386.797H1197.39V364.206H1224.39ZM1003.44 414.898V185.682H1026.03V155.377H1050.28V128.378H1075.62V103.032H1272.33V128.378H1297.68V155.377H1321.92V185.682H1345.06V414.898H1321.92V445.203H1297.68V472.202H1272.33V497.548H1075.62V472.202H1050.28V445.203H1026.03V414.898H1003.44ZM1426.2 475.508V128.378H1448.24V103.032H1519.87V130.031H1545.22V103.032H1703.36V128.378H1728.7V155.377H1752.95V185.682H1774.99V476.059H1752.95V498.099H1673.6V476.059H1651.56V236.374H1629.52V212.681H1571.67V236.374H1549.08V475.508H1527.04V497.548H1448.24V475.508H1426.2Z" fill="#F56242"/>
</g>
</svg>
