<svg width="1776" height="497" viewBox="0 0 1776 497" fill="none" xmlns="http://www.w3.org/2000/svg">
<path d="M263.071 250.353V214.538H288.417V172.662H313.212V124.725H336.905V79.543H361.7V26.096H393.658V0.198974H470.798V26.647H497.246V468.549H470.798V495.548H401.372V468.549H374.373V297.188H355.639V328.595H339.109V362.206H320.375V396.919H298.886V433.836H275.193V459.182H222.297V433.836H199.155V396.919H177.666V362.206H158.932V328.595H141.851V297.188H123.117V468.549H96.669V495.548H26.692V468.549H0.244002V26.647H26.692V0.198974H103.832V26.096H135.79V79.543H160.585V124.725H184.278V172.662H209.073V214.538H234.419V250.353H263.071ZM802.629 362.206V234.374H775.63V211.783H728.795V234.374H702.347V362.206H728.795V384.797H775.63V362.206H802.629ZM581.678 412.898V183.682H604.269V153.377H628.513V126.378H653.859V101.032H850.566V126.378H875.912V153.377H900.156V183.682H923.298V412.898H900.156V443.203H875.912V470.202H850.566V495.548H653.859V470.202H628.513V443.203H604.269V412.898H581.678ZM1225.39 362.206V234.374H1198.39V211.783H1151.56V234.374H1125.11V362.206H1151.56V384.797H1198.39V362.206H1225.39ZM1004.44 412.898V183.682H1027.03V153.377H1051.28V126.378H1076.62V101.032H1273.33V126.378H1298.68V153.377H1322.92V183.682H1346.06V412.898H1322.92V443.203H1298.68V470.202H1273.33V495.548H1076.62V470.202H1051.28V443.203H1027.03V412.898H1004.44ZM1427.2 473.508V126.378H1449.24V101.032H1520.87V128.031H1546.22V101.032H1704.36V126.378H1729.7V153.377H1753.95V183.682H1775.99V474.059H1753.95V496.099H1674.6V474.059H1652.56V234.374H1630.52V210.681H1572.67V234.374H1550.08V473.508H1528.04V495.548H1449.24V473.508H1427.2Z" fill="#F56242"/>
</svg>
