<?xml version="1.0" encoding="UTF-8"?>
<svg id="_레이어_1" data-name="레이어_1" xmlns="http://www.w3.org/2000/svg" version="1.1" viewBox="0 0 1775 250">
  <!-- Generator: Adobe Illustrator 29.8.2, SVG Export Plug-In . SVG Version: 2.1.1 Build 3)  -->
  <defs>
    <style>
      .st0 {
        fill: #f56242;
      }
    </style>
  </defs>
  <polygon class="st0" points="1345.1 250 1345.1 185.7 1321.9 185.7 1321.9 155.4 1297.7 155.4 1297.7 128.4 1272.3 128.4 1272.3 103 1075.6 103 1075.6 128.4 1050.3 128.4 1050.3 155.4 1026 155.4 1026 185.7 1003.4 185.7 1003.4 250 1124.1 250 1124.1 236.4 1150.6 236.4 1150.6 213.8 1197.4 213.8 1197.4 236.4 1224.4 236.4 1224.4 250 1345.1 250"/>
  <polygon class="st0" points="922.3 250 922.3 185.7 899.2 185.7 899.2 155.4 874.9 155.4 874.9 128.4 849.6 128.4 849.6 103 652.9 103 652.9 128.4 627.5 128.4 627.5 155.4 603.3 155.4 603.3 185.7 580.7 185.7 580.7 250 701.3 250 701.3 236.4 727.8 236.4 727.8 213.8 774.6 213.8 774.6 236.4 801.6 236.4 801.6 250 922.3 250"/>
  <polygon class="st0" points="1752.9 155.4 1728.7 155.4 1728.7 128.4 1703.4 128.4 1703.4 103 1545.2 103 1545.2 130 1519.9 130 1519.9 103 1448.2 103 1448.2 128.4 1426.2 128.4 1426.2 250 1549.1 250 1549.1 236.4 1571.7 236.4 1571.7 212.7 1629.5 212.7 1629.5 236.4 1651.6 236.4 1651.6 250 1775 250 1775 185.7 1752.9 185.7 1752.9 155.4"/>
  <polygon class="st0" points="233.4 216.5 208.1 216.5 208.1 174.7 183.3 174.7 183.3 126.7 159.6 126.7 159.6 81.5 134.8 81.5 134.8 28.1 102.8 28.1 102.8 2.2 25.7 2.2 25.7 28.6 0 28.6 0 250 233.4 250 233.4 216.5"/>
  <polygon class="st0" points="496.2 28.6 469.8 28.6 469.8 2.2 392.7 2.2 392.7 28.1 360.7 28.1 360.7 81.5 335.9 81.5 335.9 126.7 312.2 126.7 312.2 174.7 287.4 174.7 287.4 216.5 262.1 216.5 262.1 250 496.2 250 496.2 28.6"/>
</svg>