<svg width="1779" height="215" viewBox="0 0 1779 215" fill="none" xmlns="http://www.w3.org/2000/svg">
<path d="M94.3765 91.6395V78.867H103.416V63.933H112.258V46.8375H120.708V30.7245H129.55V11.664H140.947V2.42849H168.457V11.8605H177.889V169.454H168.457V179.082H143.698V169.454H134.07V108.342H127.389V119.542H121.494V131.529H114.812V143.908H107.149V157.074H98.6995V166.113H79.8355V157.074H71.5825V143.908H63.919V131.529H57.238V119.542H51.1465V108.342H44.4655V169.454H35.0335V179.082H10.078V169.454H0.646001V11.8605H10.078V2.42849H37.588V11.664H48.985V30.7245H57.8275V46.8375H66.277V63.933H75.1195V78.867H84.1585V91.6395H94.3765ZM286.796 131.529V85.941H277.168V77.8845H260.465V85.941H251.033V131.529H260.465V139.585H277.168V131.529H286.796ZM208 149.607V67.863H216.056V57.0555H224.702V47.427H233.741V38.388H303.892V47.427H312.931V57.0555H321.577V67.863H329.83V149.607H321.577V160.415H312.931V170.043H303.892V179.082H233.741V170.043H224.702V160.415H216.056V149.607H208ZM437.564 131.529V85.941H427.935V77.8845H411.233V85.941H401.801V131.529H411.233V139.585H427.935V131.529H437.564ZM358.767 149.607V67.863H366.824V57.0555H375.47V47.427H384.509V38.388H454.659V47.427H463.698V57.0555H472.344V67.863H480.597V149.607H472.344V160.415H463.698V170.043H454.659V179.082H384.509V170.043H375.47V160.415H366.824V149.607H358.767ZM509.535 171.222V47.427H517.395V38.388H542.94V48.0165H551.979V38.388H608.374V47.427H617.413V57.0555H626.059V67.863H633.919V171.419H626.059V179.279H597.763V171.419H589.903V85.941H582.043V77.4915H561.411V85.941H553.354V171.222H545.494V179.082H517.395V171.222H509.535ZM664.168 104.412V80.832H672.028V72.972H768.51V80.832H776.37V104.412H768.51V112.272H672.028V104.412H664.168ZM899.601 170.043V179.082H834.953V170.043H824.342V160.415H814.32V150.197H805.281V109.128H813.534V100.678H843.009V109.128H851.262V127.402H859.319V136.638H873.663V127.402H882.309V11.8605H891.938V2.42849H919.841V11.8605H929.273V150.197H920.234V160.415H910.212V170.043H899.601ZM997.661 179.082H968.579V171.222H960.719V62.754H968.579V54.894H997.661V62.754H1005.72V171.222H997.661V179.082ZM998.054 0.0704978V7.93049H1005.91V35.8335H998.054V43.6935H968.382V35.8335H960.522V7.93049H968.382V0.0704978H998.054ZM1079.46 92.4255H1070.03V79.653H1060.4V67.2735H1050.58V55.287H1040.55V44.676H1030.93V11.4675H1040.55V2.42849H1068.65V11.4675H1078.68V24.4365H1088.3V36.816H1097.54V48.4095H1108.54V36.816H1117.78V24.4365H1127.41V11.4675H1137.43V2.42849H1165.53V11.4675H1175.16V44.676H1165.53V55.287H1155.51V67.2735H1145.88V79.653H1136.05V92.4255H1126.62V171.222H1118.76V179.082H1087.32V171.222H1079.46V92.4255ZM1277.69 131.529V85.941H1268.06V77.8845H1251.36V85.941H1241.93V131.529H1251.36V139.585H1268.06V131.529H1277.69ZM1198.9 149.607V67.863H1206.95V57.0555H1215.6V47.427H1224.64V38.388H1294.79V47.427H1303.83V57.0555H1312.47V67.863H1320.73V149.607H1312.47V160.415H1303.83V170.043H1294.79V179.082H1224.64V170.043H1215.6V160.415H1206.95V149.607H1198.9ZM1429.84 46.0515H1437.7V38.1915H1466.39V46.0515H1474.25V170.043H1465.99V179.082H1438.88V170.043H1429.44V179.082H1378.94V170.043H1368.73V159.432H1358.7V148.035H1349.86V46.0515H1357.72V38.1915H1386.21V46.0515H1394.07V127.992H1403.11V138.013H1420.8V127.992H1429.84V46.0515ZM1503.5 171.222V47.427H1511.36V38.388H1536.91V48.0165H1545.95V38.388H1602.34V47.427H1611.38V57.0555H1620.03V67.863H1627.89V171.419H1620.03V179.279H1591.73V171.419H1583.87V85.941H1576.01V77.4915H1555.38V85.941H1547.32V171.222H1539.46V179.082H1511.36V171.222H1503.5ZM1735.16 75.723H1707.26V82.797H1700.19V113.254H1707.26V120.328H1735.16V75.723ZM1734.97 157.074H1686.04V149.41H1675.82V141.354H1666.19V132.511H1657.15V62.9505H1666.19V54.108H1675.82V46.0515H1686.04V38.388H1770.14V46.8375H1778.39V188.121H1770.53V197.75H1761.69V206.985H1752.65V214.649H1672.87V206.985H1664.42V184.977H1672.87V176.921H1725.54V168.864H1734.97V157.074Z" fill="#F56242"/>
</svg>
