<?xml version="1.0" encoding="UTF-8"?>
<svg id="_레이어_1" data-name="레이어_1" xmlns="http://www.w3.org/2000/svg" version="1.1" viewBox="0 0 1775 212">
  <!-- Generator: Adobe Illustrator 29.8.2, SVG Export Plug-In . SVG Version: 2.1.1 Build 3)  -->
  <defs>
    <style>
      .st0 {
        fill: #f56242;
      }
    </style>
  </defs>
  <polygon class="st0" points="1618 176.3 1618 168.4 1625.9 168.4 1625.9 64.9 1618 64.9 1618 54.1 1609.4 54.1 1609.4 44.4 1600.3 44.4 1600.3 35.4 1543.9 35.4 1543.9 45 1534.9 45 1534.9 35.4 1509.4 35.4 1509.4 44.4 1501.5 44.4 1501.5 168.2 1509.4 168.2 1509.4 176.1 1537.5 176.1 1537.5 168.2 1545.3 168.2 1545.3 82.9 1553.4 82.9 1553.4 74.5 1574 74.5 1574 82.9 1581.9 82.9 1581.9 168.4 1589.7 168.4 1589.7 176.3 1618 176.3"/>
  <polygon class="st0" points="1464 176.1 1464 167 1472.2 167 1472.2 43.1 1464.4 43.1 1464.4 35.2 1435.7 35.2 1435.7 43.1 1427.8 43.1 1427.8 125 1418.8 125 1418.8 135 1401.1 135 1401.1 125 1392.1 125 1392.1 43.1 1384.2 43.1 1384.2 35.2 1355.7 35.2 1355.7 43.1 1347.9 43.1 1347.9 145 1356.7 145 1356.7 156.4 1366.7 156.4 1366.7 167 1376.9 167 1376.9 176.1 1427.4 176.1 1427.4 167 1436.9 167 1436.9 176.1 1464 176.1"/>
  <polygon class="st0" points="33 176.1 33 166.5 42.5 166.5 42.5 105.3 49.1 105.3 49.1 116.5 55.2 116.5 55.2 128.5 61.9 128.5 61.9 140.9 69.6 140.9 69.6 154.1 77.8 154.1 77.8 163.1 96.7 163.1 96.7 154.1 105.1 154.1 105.1 140.9 112.8 140.9 112.8 128.5 119.5 128.5 119.5 116.5 125.4 116.5 125.4 105.3 132.1 105.3 132.1 166.5 141.7 166.5 141.7 176.1 166.5 176.1 166.5 166.5 175.9 166.5 175.9 8.9 166.5 8.9 166.5 0 138.9 0 138.9 8.7 127.5 8.7 127.5 27.7 118.7 27.7 118.7 43.8 110.3 43.8 110.3 60.9 101.4 60.9 101.4 75.9 92.4 75.9 92.4 88.6 82.2 88.6 82.2 75.9 73.1 75.9 73.1 60.9 64.3 60.9 64.3 43.8 55.8 43.8 55.8 27.7 47 27.7 47 8.7 35.6 8.7 35.6 0 8.1 0 8.1 8.9 0 8.9 0 166.5 8.1 166.5 8.1 176.1 33 176.1"/>
  <path class="st0" d="M1775,43.8h-6.9v-8.4h-84.1v7.7h-10.2v8.1h-9.6v8.8h-9v69.6h9v8.8h9.6v8.1h10.2v7.7h48.9v11.8h-9.4v8.1h-52.7v8.1h-8.4v22h8.4v7.7h79.8v-7.7h9v-9.2h8.8v-9.6h6.5V43.8ZM1733.2,117.3h-27.9v-7.1h-7.1v-30.5h7.1v-7.1h27.9v44.6Z"/>
  <path class="st0" d="M1292.8,176.1v-9h9v-9.6h8.6v-10.8h8.3v-81.7h-8.3v-10.8h-8.6v-9.6h-9v-9h-70.2v9h-9v9.6h-8.7v10.8h-8v81.7h8v10.8h8.7v9.6h9v9h70.2ZM1239.9,82.9h9.4v-8.1h16.7v8.1h9.6v45.6h-9.6v8.1h-16.7v-8.1h-9.4v-45.6Z"/>
  <polygon class="st0" points="1038.6 0 1038.6 8.5 1028.9 8.5 1028.9 41.7 1038.6 41.7 1038.6 52.3 1048.6 52.3 1048.6 64.3 1058.4 64.3 1058.4 76.7 1068 76.7 1068 89.4 1077.5 89.4 1077.5 168.2 1085.3 168.2 1085.3 176.1 1116.8 176.1 1116.8 168.2 1124.6 168.2 1124.6 89.4 1134.1 89.4 1134.1 76.7 1143.9 76.7 1143.9 64.3 1153.5 64.3 1153.5 52.3 1163.5 52.3 1163.5 41.7 1173.2 41.7 1173.2 8.5 1163.5 8.5 1163.5 0 1135.4 0 1135.4 8.5 1125.4 8.5 1125.4 21.4 1115.8 21.4 1115.8 33.8 1106.5 33.8 1106.5 45.4 1095.5 45.4 1095.5 33.8 1086.3 33.8 1086.3 21.4 1076.7 21.4 1076.7 8.5 1066.7 8.5 1066.7 0 1038.6 0"/>
  <polygon class="st0" points="624.1 176.3 624.1 168.4 631.9 168.4 631.9 64.9 624.1 64.9 624.1 54.1 615.4 54.1 615.4 44.4 606.4 44.4 606.4 35.4 550 35.4 550 45 540.9 45 540.9 35.4 515.4 35.4 515.4 44.4 507.5 44.4 507.5 168.2 515.4 168.2 515.4 176.1 543.5 176.1 543.5 168.2 551.4 168.2 551.4 82.9 559.4 82.9 559.4 74.5 580 74.5 580 82.9 587.9 82.9 587.9 168.4 595.8 168.4 595.8 176.3 624.1 176.3"/>
  <polygon class="st0" points="766.5 109.3 766.5 101.4 774.4 101.4 774.4 77.8 766.5 77.8 766.5 70 670 70 670 77.8 662.2 77.8 662.2 101.4 670 101.4 670 109.3 766.5 109.3"/>
  <path class="st0" d="M301.9,176.1v-9h9v-9.6h8.6v-10.8h8.3v-81.7h-8.3v-10.8h-8.6v-9.6h-9v-9h-70.2v9h-9v9.6h-8.6v10.8h-8.1v81.7h8.1v10.8h8.6v9.6h9v9h70.2ZM249,82.9h9.4v-8.1h16.7v8.1h9.6v45.6h-9.6v8.1h-16.7v-8.1h-9.4v-45.6Z"/>
  <path class="st0" d="M452.7,176.1v-9h9v-9.6h8.6v-10.8h8.3v-81.7h-8.3v-10.8h-8.6v-9.6h-9v-9h-70.1v9h-9v9.6h-8.6v10.8h-8.1v81.7h8.1v10.8h8.6v9.6h9v9h70.1ZM399.8,82.9h9.4v-8.1h16.7v8.1h9.6v45.6h-9.6v8.1h-16.7v-8.1h-9.4v-45.6Z"/>
  <polygon class="st0" points="889.9 0 889.9 8.9 880.3 8.9 880.3 124.4 871.7 124.4 871.7 133.6 857.3 133.6 857.3 124.4 849.3 124.4 849.3 106.1 841 106.1 841 97.7 811.5 97.7 811.5 106.1 803.3 106.1 803.3 147.2 812.3 147.2 812.3 157.4 822.3 157.4 822.3 167 833 167 833 176.1 897.6 176.1 897.6 167 908.2 167 908.2 157.4 918.2 157.4 918.2 147.2 927.3 147.2 927.3 8.9 917.8 8.9 917.8 0 889.9 0"/>
  <polygon class="st0" points="966.4 0 966.4 4.9 958.5 4.9 958.5 32.8 966.4 32.8 966.4 40.7 996.1 40.7 996.1 32.8 1003.9 32.8 1003.9 4.9 996.1 4.9 996.1 0 966.4 0"/>
  <polygon class="st0" points="995.7 176.1 995.7 168.2 1003.7 168.2 1003.7 59.8 995.7 59.8 995.7 51.9 966.6 51.9 966.6 59.8 958.7 59.8 958.7 168.2 966.6 168.2 966.6 176.1 995.7 176.1"/>
</svg>