<svg width="50" height="52" viewBox="0 0 50 52" fill="none" xmlns="http://www.w3.org/2000/svg">
<path d="M8.62197 9.1167C10.2432 10.4306 10.8513 10.3304 13.8955 10.1278L42.5952 8.40854C43.2037 8.40854 42.6975 7.80272 42.4948 7.70203L37.7281 4.26441C36.815 3.55706 35.5981 2.74694 33.2662 2.94959L5.47638 4.97173C4.46293 5.07199 4.26047 5.57751 4.66413 5.98276L8.62197 9.1167ZM10.3451 15.7894V45.9155C10.3451 47.5344 11.156 48.1403 12.9814 48.0402L44.5222 46.2194C46.3484 46.1193 46.5518 45.0053 46.5518 43.6903V13.7664C46.5518 12.4532 46.0457 11.7451 44.9275 11.8462L11.9671 13.7664C10.7508 13.8683 10.3451 14.4753 10.3451 15.7894ZM41.4821 17.4054C41.6844 18.3162 41.4821 19.2262 40.5674 19.3285L39.0478 19.6306V41.8715C37.7281 42.579 36.5115 42.9835 35.4977 42.9835C33.8744 42.9835 33.4678 42.4777 32.2519 40.962L22.3113 25.3932V40.4567L25.4569 41.1647C25.4569 41.1647 25.4569 42.9835 22.9191 42.9835L15.9229 43.3883C15.7196 42.9835 15.9229 41.9735 16.6325 41.7709L18.4582 41.2663V21.3498L15.9233 21.1472C15.72 20.2364 16.2263 18.9233 17.6472 18.8213L25.1526 18.3166L35.4977 34.088V20.1361L32.8601 19.8341C32.6576 18.7207 33.4678 17.9122 34.4821 17.8119L41.4821 17.4054ZM3.14308 2.24224L32.049 0.118587C35.5988 -0.18515 36.5119 0.0183084 38.7432 1.63519L47.9699 8.1052C49.4927 9.21781 50 9.52072 50 10.7336V46.2194C50 48.4431 49.188 49.7585 46.3487 49.9596L12.7806 51.9822C10.6493 52.0835 9.635 51.7803 8.51889 50.364L1.72389 41.5687C0.506319 39.9498 0 38.7384 0 37.3213V5.77935C0 3.96066 0.812257 2.44365 3.14308 2.24224Z" fill="#F56242"/>
</svg>
