<svg width="52" height="52" viewBox="0 0 52 52" fill="none" xmlns="http://www.w3.org/2000/svg">
<path fill-rule="evenodd" clip-rule="evenodd" d="M39.8528 47.9235C35.3158 47.9235 32.383 45.7605 30.953 42.9317L34.931 40.6275C35.9788 42.3383 37.3386 43.5944 39.7488 43.5944C41.7716 43.5944 43.0638 42.5823 43.0638 41.1861C43.0638 39.0853 40.261 38.2645 38.2824 37.4169C34.7568 35.9167 32.4168 34.0317 32.4168 30.0511C32.4168 26.3877 35.2092 23.5955 39.5746 23.5955C42.679 23.5955 44.915 24.6769 46.5192 27.5031L42.7154 29.947C41.8782 28.4468 40.9708 27.8535 39.5746 27.8535C38.142 27.8535 37.2346 28.7614 37.2346 29.947C37.2346 31.4134 38.142 32.0065 40.2376 32.9139C44.629 34.7963 47.9518 36.2751 47.9518 41.1163C47.9518 45.5155 44.4964 47.9235 39.8528 47.9235ZM28.6 40.5577C28.6 45.6199 25.4826 48.2955 21.1536 48.2955C17.2432 48.2955 14.9006 46.8 13.7488 44.2H13.7098H13.6916H13.6812L17.6566 41.421C18.4236 42.7808 19.1152 43.7455 20.7896 43.7455C22.3964 43.7455 23.4 42.9318 23.4 40.4904V23.4H28.6V40.5577ZM0 52H52V0H0V52Z" fill="#F56242"/>
</svg>
