<svg width="46" height="52" viewBox="0 0 46 52" fill="none" xmlns="http://www.w3.org/2000/svg">
<path d="M46 0L41.6868 46.9441L22.9997 52L4.31227 46.9441L0 0H46ZM37.3087 9.54535H22.9829H8.40325L9.10051 15.2143H22.9829H23.7627L22.9829 15.5404L9.60788 21.1379L10.0515 26.6792L22.9829 26.7213L29.9137 26.7434L29.4701 34.1319L22.9828 35.9671V35.9613L22.9296 35.9762L16.6645 34.387L16.2843 29.8006H16.2636H10.4524H10.4319L11.1926 38.6546L22.983 42.1581V42.1518L23.0043 42.1581L34.7315 38.7184L36.2527 21.1379H22.983H22.9503L22.983 21.1237L36.7388 15.2143L37.3087 9.54535Z" fill="#F56242"/>
</svg>
