<svg width="52" height="52" viewBox="0 0 52 52" fill="none" xmlns="http://www.w3.org/2000/svg">
<path d="M0 18.819C0 12.2318 0 8.93811 1.28197 6.42211C2.40962 4.20897 4.20897 2.40962 6.42211 1.28197C8.93811 0 12.2318 0 18.819 0H33.181C39.7683 0 43.0619 0 45.5778 1.28197C47.791 2.40962 49.5904 4.20897 50.718 6.42211C52 8.93811 52 12.2318 52 18.819V33.181C52 39.7683 52 43.0619 50.718 45.5778C49.5904 47.791 47.791 49.5904 45.5778 50.718C43.0619 52 39.7683 52 33.181 52H18.819C12.2318 52 8.93811 52 6.42211 50.718C4.20897 49.5904 2.40962 47.791 1.28197 45.5778C0 43.0619 0 39.7683 0 33.181V18.819Z" fill="#F56242"/>
<path d="M25.1988 32.6788H17.1409L15.5014 37.9024C15.4559 38.0965 15.2772 38.2339 15.0828 38.2243H11.0014C10.7687 38.2243 10.6873 38.0931 10.7572 37.8307L17.7339 17.2228C17.8037 17.0081 17.8735 16.7637 17.9432 16.4894C18.0345 16.0119 18.0811 15.5268 18.0828 15.0404C18.0628 14.8967 18.189 14.7697 18.3268 14.7899H23.8734C24.0359 14.7899 24.1287 14.8495 24.1523 14.9687L32.071 37.8666C32.1406 38.1052 32.071 38.2244 31.8617 38.2243H27.3267C27.1678 38.2425 27.0159 38.1334 26.978 37.9739L25.1988 32.6788ZM18.3967 28.1708H23.9083C23.0028 25.0764 21.9808 22.0227 21.1525 18.9044C20.2588 22.0281 19.2838 25.1392 18.3967 28.1708Z" fill="#FBF6F3"/>
<path d="M36.7798 18.5822C36.424 18.5969 36.0693 18.5343 35.7385 18.3987C35.4079 18.2631 35.1089 18.0574 34.8612 17.7951C34.6142 17.5214 34.4222 17.2005 34.2964 16.8504C34.1707 16.5005 34.1137 16.1285 34.1285 15.7558C34.1159 15.3868 34.1792 15.0193 34.3144 14.6771C34.4498 14.3349 34.6539 14.0259 34.9136 13.7701C35.1706 13.517 35.474 13.3187 35.8065 13.1867C36.1387 13.0546 36.4932 12.9915 36.8494 13.0009C37.6868 13.0009 38.3437 13.2573 38.8204 13.7701C39.0611 14.0366 39.2481 14.3492 39.3709 14.6899C39.4935 15.0306 39.5495 15.3929 39.5354 15.7558C39.5501 16.1298 39.4912 16.5033 39.3623 16.8536C39.2336 17.2038 39.0373 17.524 38.7855 17.7951C38.5224 18.0613 38.2081 18.2685 37.8631 18.4041C37.5178 18.5395 37.149 18.6002 36.7798 18.5822ZM34.3728 37.8664V20.7647C34.3728 20.55 34.4654 20.4427 34.6519 20.4427H38.9426C39.1283 20.4427 39.2214 20.55 39.2216 20.7647V37.8664C39.2216 38.1052 39.1285 38.2245 38.9426 38.2243H34.6868C34.4775 38.2243 34.3728 38.105 34.3728 37.8664Z" fill="#FBF6F3"/>
</svg>
