<svg width="52" height="52" viewBox="0 0 52 52" fill="none" xmlns="http://www.w3.org/2000/svg">
<path d="M0 18.819C0 12.2318 0 8.93811 1.28197 6.42211C2.40962 4.20897 4.20897 2.40962 6.42211 1.28197C8.93811 0 12.2318 0 18.819 0H33.181C39.7683 0 43.0619 0 45.5778 1.28197C47.791 2.40962 49.5904 4.20897 50.718 6.42211C52 8.93811 52 12.2318 52 18.819V33.181C52 39.7683 52 43.0619 50.718 45.5778C49.5904 47.791 47.791 49.5904 45.5778 50.718C43.0619 52 39.7683 52 33.181 52H18.819C12.2318 52 8.93811 52 6.42211 50.718C4.20897 49.5904 2.40962 47.791 1.28197 45.5778C0 43.0619 0 39.7683 0 33.181V18.819Z" fill="#F56242"/>
<path d="M11.1429 38.1015V15.2349C11.1429 15.0794 11.2079 14.9905 11.3595 14.9905C13.5986 14.9905 15.8366 14.8571 18.0761 14.8571C21.7104 14.8571 25.6453 16.0998 27.0246 19.9015C27.3496 20.8349 27.5229 21.7904 27.5229 22.7905C27.5229 24.7017 27.0896 26.2793 26.2229 27.5238C23.8019 31 19.6059 30.9459 15.8446 30.9459V38.0794C15.8739 38.2906 15.694 38.3905 15.5196 38.3905H11.4029C11.2295 38.3905 11.1429 38.3015 11.1429 38.1015ZM15.8661 19.2794V26.746C17.3576 26.8552 18.9182 26.8671 20.3511 26.3906C21.9332 25.9341 22.7996 24.5648 22.7996 22.9238C22.8434 21.5256 22.0816 20.184 20.7846 19.6794C19.3689 19.0907 17.3944 19.0554 15.8661 19.2794Z" fill="#FBF6F3"/>
<path d="M41.0367 25.2709C40.3812 24.9253 39.6829 24.6725 38.961 24.5195C38.0335 24.3013 34.3753 23.5369 34.3739 25.4497C34.4064 26.5176 36.1016 27.0407 36.8505 27.3459C39.4801 28.2486 42.4556 29.8623 42.3971 33.1062C42.4775 37.1443 38.5649 38.7588 35.2111 38.7591C33.4652 38.7771 31.6463 38.5067 30.0484 37.7572C29.8957 37.6764 29.7977 37.5039 29.8042 37.3278V33.4638C29.7869 33.309 29.9533 33.1736 30.0833 33.285C31.6489 34.2318 33.5045 34.6916 35.3158 34.7161C36.1153 34.7161 37.6998 34.6387 37.6879 33.4638C37.6879 32.3366 35.7923 31.8182 35.0367 31.5319C33.9413 31.1409 32.9028 30.5992 31.9495 29.9219C30.6172 28.9716 29.7815 27.448 29.8042 25.7718C29.7964 21.9694 33.3979 20.2627 36.6414 20.262C38.1576 20.2494 39.7859 20.3617 41.1974 20.9775C41.4004 21.0371 41.4423 21.2511 41.4416 21.4426V25.0562C41.4544 25.2805 41.2054 25.3569 41.0367 25.2709Z" fill="#FBF6F3"/>
</svg>
