<svg width="52" height="52" viewBox="0 0 52 52" fill="none" xmlns="http://www.w3.org/2000/svg">
<path d="M50.1616 5.49614L39.4543 0.322201C38.8496 0.0295792 38.1692 -0.0669862 37.5074 0.045891C36.8456 0.158768 36.2351 0.475497 35.7607 0.95217L0.710239 33.0246C0.284974 33.4119 0.0304122 33.9529 0.00255229 34.5286C-0.0253076 35.1043 0.175816 35.6675 0.561681 36.0943C0.608105 36.1447 0.65453 36.1931 0.704668 36.2379L3.56627 38.8472C3.9402 39.1888 4.42152 39.3881 4.92663 39.4106C5.43174 39.433 5.92874 39.2772 6.33132 38.9702L48.5497 6.83809C48.8686 6.59522 49.2487 6.44651 49.6472 6.4087C50.0458 6.37088 50.4469 6.44547 50.8055 6.62407C51.1641 6.80266 51.4659 7.07817 51.6769 7.41958C51.8879 7.76099 51.9998 8.15475 52 8.55652V8.43165C52 7.81827 51.8274 7.21736 51.5022 6.69805C51.177 6.17874 50.7123 5.76213 50.1616 5.49614Z" fill="#DE300D"/>
<path d="M50.1616 46.5036L39.4543 51.679C38.8494 51.9708 38.1692 52.0669 37.5076 51.954C36.846 51.8412 36.2356 51.525 35.7607 51.0491L0.710239 18.9772C0.284974 18.5899 0.0304122 18.049 0.00255229 17.4733C-0.0253076 16.8977 0.175816 16.3345 0.561681 15.9077C0.608105 15.8574 0.65453 15.809 0.704668 15.7642L3.56627 13.1551C3.94058 12.8121 4.423 12.6119 4.92936 12.5894C5.43572 12.5669 5.93386 12.7236 6.33689 13.0321L48.5497 45.1617C48.8686 45.4046 49.2487 45.5533 49.6472 45.5911C50.0458 45.6289 50.4469 45.5543 50.8055 45.3757C51.1641 45.1972 51.4659 44.9217 51.6769 44.5803C51.8879 44.2389 51.9998 43.8452 52 43.4434V43.5776C51.998 44.1893 51.8245 44.7881 51.4994 45.3055C51.1743 45.823 50.7107 46.2381 50.1616 46.5036Z" fill="#F56242"/>
<path d="M39.511 51.6783C38.9089 51.9707 38.2318 52.067 37.5731 51.9539C36.9145 51.8408 36.3069 51.5239 35.8342 51.0469C36.0996 51.3116 36.4365 51.4913 36.8026 51.5634C37.1687 51.6356 37.5477 51.5969 37.8922 51.4523C38.2366 51.3077 38.5311 51.0636 38.7389 50.7506C38.9466 50.4375 39.0583 50.0695 39.0599 49.6927V2.30713C39.0603 1.92848 38.9493 1.55826 38.7412 1.24336C38.5331 0.928458 38.2372 0.683053 37.891 0.538228C37.5448 0.393404 37.1638 0.355677 36.7963 0.429826C36.4288 0.503976 36.0914 0.686665 35.8268 0.954752C36.2991 0.4772 36.9067 0.159753 37.5654 0.0463121C38.2241 -0.0671287 38.9014 0.0290426 39.5036 0.321526L50.1607 5.49941C50.7106 5.76466 51.1751 6.18162 51.5005 6.70217C51.826 7.22273 51.9991 7.82566 52 8.4414V43.5584C52.0001 44.1736 51.8283 44.7764 51.5041 45.2972C51.18 45.8181 50.7169 46.2358 50.1681 46.5022L39.511 51.6783Z" fill="#F7917D"/>
</svg>
