<svg width="58" height="52" viewBox="0 0 58 52" fill="none" xmlns="http://www.w3.org/2000/svg">
<path d="M25.7365 38.088C26.8002 38.1367 27.887 38.1717 28.9874 38.1717C30.0994 38.1717 31.1979 38.1484 32.2751 38.088C31.1979 39.4896 30.1342 40.7295 29.0087 41.9111L29.0242 41.8955C27.9044 40.7276 26.8292 39.4857 25.8158 38.1932L25.7365 38.088ZM14.7171 36.5308C16.8115 37.0661 19.3662 37.5216 21.9731 37.8019L22.2265 37.8233C23.8219 40.0287 25.4348 41.9695 27.1657 43.7953L27.1444 43.772C24.609 46.6197 21.188 48.6208 17.3182 49.3391L17.2118 49.3546C17.2041 49.3546 17.1964 49.3546 17.1886 49.3546C16.709 49.3546 16.2565 49.2359 15.86 49.0257L15.8755 49.0335C14.2665 48.1089 13.5683 44.572 14.1118 40.0268C14.2413 38.9075 14.4541 37.7299 14.7151 36.5289L14.7171 36.5308ZM43.3061 36.5055C43.5343 37.4282 43.749 38.6039 43.9018 39.7991L43.9192 39.9665C44.4742 44.5097 43.7896 48.0427 42.1941 48.9867C41.8383 49.1853 41.4128 49.3021 40.9603 49.3021C40.9158 49.3021 40.8713 49.3001 40.8268 49.2982H40.8326C36.8623 48.5682 33.4432 46.5808 30.9136 43.7681L30.9001 43.7525C32.6 41.9558 34.2013 40.019 35.6691 37.981L35.7813 37.8175C38.6357 37.5177 41.1943 37.0544 43.6871 36.4218L43.3061 36.5036V36.5055ZM16.9778 29.241C17.4613 30.1948 17.968 31.1447 18.525 32.0985C19.0806 33.0471 19.6486 33.9737 20.2287 34.8782C18.5501 34.631 16.9295 34.3195 15.3804 33.94C15.8155 32.408 16.3609 30.8216 16.9759 29.2371L16.9778 29.241ZM41.0125 29.1923C41.6526 30.7904 42.1961 32.3847 42.6467 33.9302C41.0995 34.3117 39.4654 34.6349 37.7751 34.8782C38.3553 33.9653 38.9355 33.0251 39.4789 32.0615C40.0223 31.1136 40.531 30.1442 41.0164 29.1904L41.0125 29.1923ZM12.7909 18.7803C13.6341 21.6573 14.5392 24.0632 15.5931 26.3835L15.4481 26.0292C14.5469 27.9855 13.6554 30.3778 12.9243 32.8402L12.8238 33.2392C11.4584 32.8168 10.36 32.4022 9.29052 31.937L9.51292 32.0226C5.32793 30.2298 2.62045 27.8726 2.62045 26.0039C2.62045 24.1352 5.32793 21.7663 9.51292 19.9813C10.5282 19.5433 11.6422 19.1482 12.7909 18.7803ZM45.1627 18.7705C46.3327 19.1345 47.4447 19.5414 48.4851 19.9813C52.6701 21.7818 55.3776 24.1352 55.3776 26.0039C55.366 27.8726 52.6585 30.2357 48.4735 32.0246C47.4582 32.4625 46.3462 32.8557 45.1994 33.2236C44.3485 30.3369 43.4434 27.9329 42.3933 25.6087L42.5403 25.9747C43.4376 24.0204 44.3311 21.6281 45.0602 19.1657L45.1627 18.7647V18.7705ZM37.7597 17.1296C39.4402 17.3807 41.0589 17.6883 42.608 18.0717C42.1729 19.6095 41.6294 21.1901 41.0125 22.7746C40.529 21.8266 40.0223 20.8709 39.4654 19.919C38.9219 18.9652 38.3418 18.0367 37.7616 17.1315L37.7597 17.1296ZM20.2152 17.1296C19.635 18.0464 19.0548 18.9847 18.5134 19.9521C17.9699 20.9001 17.4613 21.8539 16.9778 22.8077C16.3377 21.2115 15.7943 19.6212 15.3437 18.0717C16.8908 17.7077 18.5211 17.3826 20.2133 17.1335L20.2152 17.1296ZM28.999 16.5106C30.7879 16.5106 32.569 16.5923 34.3212 16.7364C35.3023 18.1522 36.2551 19.6601 37.1795 21.2602C38.0781 22.8174 38.8981 24.3954 39.6394 25.9942C38.8949 27.5884 38.0788 29.1807 37.1911 30.7379C36.2725 32.3438 35.3229 33.8718 34.3386 35.287C32.5787 35.4407 30.7956 35.5244 28.9971 35.5244C27.2082 35.5244 25.4271 35.4388 23.675 35.2986C22.6945 33.8835 21.7372 32.3691 20.8166 30.7749C19.918 29.2176 19.098 27.6396 18.3567 26.0409C19.0897 24.4428 19.9174 22.8466 20.805 21.2874C21.7236 19.6815 22.6732 18.1593 23.6576 16.7442C25.4174 16.5885 27.2005 16.5067 28.999 16.5067V16.5106ZM28.9623 10.124C30.084 11.2919 31.1592 12.5319 32.1707 13.8244L32.248 13.9275C31.1844 13.8789 30.0975 13.8458 28.9971 13.8458C27.8851 13.8458 26.7866 13.8691 25.7094 13.9275C26.7847 12.526 27.8484 11.2861 28.9758 10.1045L28.9604 10.1201L28.9623 10.124ZM17.1635 2.70375C21.1338 3.43565 24.551 5.42307 27.0825 8.23388L27.0961 8.24946C25.3962 10.0481 23.7949 11.9849 22.327 14.0268L22.2149 14.1903C19.3623 14.4881 16.8038 14.9475 14.3129 15.5801L14.6919 15.4984C14.4212 14.3071 14.2201 13.1528 14.0789 12.0452C13.5239 7.50198 14.2085 3.969 15.8039 3.02882C16.2023 2.84001 16.6684 2.72322 17.1596 2.70764H17.1654L17.1635 2.70375ZM40.7766 2.65509V2.67066C40.8017 2.67066 40.8307 2.66871 40.8617 2.66871C41.3239 2.66871 41.759 2.78356 42.1419 2.986L42.1264 2.97821C43.7355 3.90672 44.4336 7.44164 43.8902 11.9888C43.7606 13.108 43.5479 14.2876 43.2868 15.4906C41.1885 14.9495 38.6338 14.492 36.0269 14.2137L35.7793 14.1923C34.1819 11.9849 32.569 10.0442 30.8382 8.21637L30.8614 8.23972C33.3968 5.39777 36.812 3.39672 40.6741 2.67455L40.7824 2.65703L40.7766 2.65509ZM40.7882 0.00389281C36.0656 0.726061 31.9773 3.03466 28.9913 6.3652L28.9758 6.38272C25.9686 3.05413 21.8803 0.761099 17.2737 0.0661824L17.1654 0.0525566C17.1403 0.0525566 17.1093 0.0525566 17.0784 0.0525566C16.1288 0.0525566 15.2373 0.303661 14.4657 0.74358L14.4927 0.729954C11.1703 2.65898 10.4257 8.66991 12.1411 16.2128C4.7845 18.5 0 22.1556 0 26.0078C0 29.8756 4.80964 33.5409 12.1875 35.8106C10.4857 43.3826 11.2457 49.4033 14.5759 51.3304C15.3069 51.7528 16.1849 52 17.119 52C17.1615 52 17.2041 52 17.2447 51.9981H17.2389C21.9615 51.2759 26.0498 48.9653 29.0358 45.6329L29.0512 45.6153C32.0585 48.9459 36.1468 51.2389 40.7534 51.9338L40.8617 51.9474C40.8907 51.9474 40.9274 51.9474 40.9622 51.9474C41.906 51.9474 42.7936 51.6983 43.5614 51.2642L43.5343 51.2778C46.8549 49.3507 47.6013 43.3398 45.886 35.795C53.2155 33.5273 58 29.8639 58 26.0058C58 22.1381 53.1904 18.4727 45.8125 16.1972C47.5143 8.63293 46.7543 2.60642 43.4241 0.677398C42.6853 0.251104 41.7996 0 40.8559 0C40.8307 0 40.8056 0 40.7804 0H40.7843L40.7882 0.00389281ZM34.3889 26.0078C34.3889 29.0113 31.9695 31.4464 28.9855 31.4464C26.0015 31.4464 23.5821 29.0113 23.5821 26.0078C23.5821 23.0043 26.0015 20.5691 28.9855 20.5691C30.4785 20.5691 31.8283 21.1784 32.8069 22.1614C33.7855 23.1464 34.3889 24.5051 34.3889 26.0078Z" fill="#F56242"/>
</svg>
