<svg width="52" height="52" viewBox="0 0 52 52" fill="none" xmlns="http://www.w3.org/2000/svg">
<path d="M0 18.819C0 12.2318 0 8.93811 1.28197 6.42211C2.40962 4.20897 4.20897 2.40962 6.42211 1.28197C8.93811 0 12.2318 0 18.819 0H33.181C39.7683 0 43.0619 0 45.5778 1.28197C47.791 2.40962 49.5904 4.20897 50.718 6.42211C52 8.93811 52 12.2318 52 18.819V33.181C52 39.7683 52 43.0619 50.718 45.5778C49.5904 47.791 47.791 49.5904 45.5778 50.718C43.0619 52 39.7683 52 33.181 52H18.819C12.2318 52 8.93811 52 6.42211 50.718C4.20897 49.5904 2.40962 47.791 1.28197 45.5778C0 43.0619 0 39.7683 0 33.181V18.819Z" fill="#F56242"/>
<path d="M21.8944 32.6185H13.8365L12.197 37.8521C12.1514 38.0462 11.9727 38.1836 11.7783 38.1741H7.697C7.46426 38.1741 7.38287 38.043 7.45282 37.7806L14.4294 17.2577C14.4992 17.0432 14.569 16.8333 14.6388 16.5588C14.73 16.0814 14.7768 15.5963 14.7783 15.1099C14.7583 14.9662 14.8824 14.8388 15.0224 14.8594H20.569C20.7315 14.8594 20.8243 14.919 20.8479 15.0382L28.7666 37.8163C28.8362 38.0551 28.7664 38.1743 28.5573 38.1741H24.0223C23.8634 38.1921 23.7114 38.0831 23.6736 37.9236L21.8944 32.6185ZM15.0923 28.2057H20.6039C19.6983 25.1114 18.6764 22.0578 17.8481 18.9393C16.9095 22.1741 16.0427 25.1741 15.0923 28.2057Z" fill="#FBF6F3"/>
<path d="M34.6558 30.5977C34.9765 33.2551 37.208 34.5221 39.679 34.468C41.0724 34.4407 42.5614 34.2244 43.8635 33.6975C43.9794 33.6026 44.0379 33.6618 44.0379 33.8765V37.2753C44.0488 37.4521 43.9749 37.6101 43.8286 37.7047C42.2102 38.4397 40.3527 38.6615 38.5976 38.6332C33.3645 38.6332 29.7707 34.9461 29.7722 29.5815C29.7585 24.4978 33.0566 20.2089 38.1789 20.2089C42.5211 20.0963 45.5273 23.5727 45.5394 27.9001C45.5394 28.688 45.4953 29.479 45.3999 30.2612C45.3813 30.4224 45.2441 30.5476 45.0858 30.5476C41.618 30.5476 38.1333 30.5977 34.6558 30.5977ZM34.6558 27.3385C36.5885 27.3385 38.5324 27.4068 40.4638 27.3206C40.7541 27.2909 40.9697 27.2358 40.9697 26.934C40.9294 25.3298 39.5755 24.0103 38.0046 24.0717C36.1066 23.954 34.8918 25.5563 34.6558 27.3385Z" fill="#FBF6F3"/>
</svg>
