<svg width="52" height="52" viewBox="0 0 52 52" fill="none" xmlns="http://www.w3.org/2000/svg">
<path d="M0 18.819C0 12.2318 0 8.93811 1.28197 6.42211C2.40962 4.20897 4.20897 2.40962 6.42211 1.28197C8.93811 0 12.2318 0 18.819 0H33.181C39.7683 0 43.0619 0 45.5778 1.28197C47.791 2.40962 49.5904 4.20897 50.718 6.42211C52 8.93811 52 12.2318 52 18.819V33.181C52 39.7683 52 43.0619 50.718 45.5778C49.5904 47.791 47.791 49.5904 45.5778 50.718C43.0619 52 39.7683 52 33.181 52H18.819C12.2318 52 8.93811 52 6.42211 50.718C4.20897 49.5904 2.40962 47.791 1.28197 45.5778C0 43.0619 0 39.7683 0 33.181V18.819Z" fill="#F56242"/>
<path d="M11.1429 36.7634V13.3862C11.1429 13.2272 11.208 13.1363 11.3602 13.1363C13.6059 13.1363 15.8505 13 18.0969 13C21.7418 13 25.6886 14.2703 27.0719 18.1571C27.3979 19.1113 27.5717 20.0882 27.5717 21.1105C27.5717 23.0642 27.1371 24.6772 26.2678 25.9495C23.8398 29.5033 19.6311 29.4482 15.8585 29.4482V36.7406C15.888 36.9566 15.7075 37.0587 15.5326 37.0587H11.4036C11.2298 37.0587 11.1429 36.9679 11.1429 36.7634ZM15.8802 17.521V25.1543C17.3762 25.2661 18.9414 25.2781 20.3786 24.7908C21.9654 24.3243 22.8343 22.9244 22.8343 21.2468C22.8785 19.8174 22.1143 18.4457 20.8134 17.93C19.3934 17.3281 17.4131 17.292 15.8802 17.521Z" fill="#FBF6F3"/>
<path d="M30.5175 18.965H34.3313C34.5416 18.967 34.7304 19.1187 34.786 19.3308C35.0655 19.9795 35.1 20.7619 35.1009 21.4623C35.755 20.6661 36.5436 20.0029 37.4276 19.5054C38.3756 18.9447 39.4504 18.6604 40.5394 18.6825C40.7203 18.6554 40.8802 18.8227 40.8544 19.0116V23.4373C40.8544 23.6084 40.7374 23.6934 40.5045 23.6934C38.8903 23.577 36.3772 23.9757 35.2042 25.3028V36.8104C35.2042 37.0299 35.111 37.1397 34.9243 37.1397H30.8325C30.6315 37.1698 30.4542 36.9807 30.4826 36.7738V24.2786C30.4826 22.6044 30.5173 20.8797 30.2727 19.2211C30.235 19.0684 30.3747 18.9265 30.5175 18.965Z" fill="#FBF6F3"/>
</svg>
