<svg width="140" height="52" viewBox="0 0 140 52" fill="none" xmlns="http://www.w3.org/2000/svg">
<path d="M40.8 24.2865C40.8 24.2865 40.8 24.3007 40.8 24.3092L38.9577 32.3962C38.8583 32.8536 38.407 33.1891 37.8848 33.1891H35.662C35.4974 33.1891 35.3497 33.2998 35.3042 33.459C33.2519 40.503 30.4728 45.3451 26.8025 48.2519C23.6797 50.727 19.8305 51.8807 14.6896 51.8807C10.0682 51.8807 6.95409 50.3774 4.31127 47.4109C0.819644 43.4896 -0.62526 37.0706 0.249064 29.3359C1.82739 14.8157 9.2705 0.164774 23.6089 0.164774C27.9692 0.124992 31.3926 1.48608 33.7743 4.20259C36.2922 7.07537 37.5724 11.403 37.578 17.0662C37.5695 17.5805 37.1467 17.9954 36.6385 17.9954H26.1352C25.7635 17.9954 25.4313 17.6572 25.437 17.285C25.3517 13.3694 24.2021 11.4599 21.9198 11.4599C17.8945 11.4599 15.5185 16.9895 14.2581 20.0555C12.4981 24.3376 11.6039 28.9865 11.7799 33.6181C11.8622 35.7749 12.2057 38.8069 14.2297 40.0627C16.0238 41.1766 18.5843 40.4378 20.1342 39.2046C21.6842 37.9713 22.9304 35.8375 23.4555 33.8909C23.5293 33.621 23.5351 33.4108 23.464 33.3169C23.3903 33.2203 23.1859 33.1976 23.0298 33.1976H20.3329C20.0434 33.1976 19.7567 33.0641 19.5835 32.848C19.4388 32.6661 19.382 32.4417 19.4331 32.2202L21.2782 24.1188C21.3691 23.7041 21.741 23.3914 22.198 23.3347V23.3147H39.8973C39.94 23.3147 39.9825 23.3147 40.0223 23.3232C40.4822 23.3829 40.8058 23.8149 40.7973 24.2865H40.8Z" fill="#F56242"/>
<path d="M71.2764 14.9919C71.2678 15.4977 70.8448 15.9126 70.3368 15.9126H60.6625C60.0294 15.9126 59.4985 15.3926 59.4985 14.7589C59.4985 11.9032 58.522 10.5137 56.5237 10.5137C54.5251 10.5137 53.2363 11.7554 53.1994 13.9235C53.1569 16.3416 54.508 18.5381 58.3574 22.3145C63.4245 27.1224 65.4541 31.3819 65.3576 37.0109C65.1986 46.1152 59.0784 52 49.7675 52C45.0125 52 41.379 50.7128 38.9633 48.1754C36.5107 45.5979 35.3865 41.8159 35.6222 36.9342C35.6335 36.4284 36.0535 36.0164 36.5618 36.0164H46.5683C46.8408 36.0164 47.1105 36.1499 47.2922 36.3773C47.4482 36.5733 47.5135 36.8149 47.4739 37.0422C47.363 38.8039 47.6668 40.1195 48.3509 40.847C48.791 41.3186 49.4014 41.5575 50.1648 41.5575C52.013 41.5575 53.0973 40.2361 53.1369 37.9343C53.1711 35.9453 52.5493 34.2007 49.1601 30.6744C44.7827 26.3467 40.8566 21.8769 40.9787 14.847C41.0498 10.7722 42.6508 7.04415 45.4868 4.35037C48.4843 1.50317 52.5864 0 57.3468 0C62.1159 0.0340983 65.7296 1.4094 68.0884 4.08896C70.3226 6.62928 71.3985 10.2977 71.2793 14.9919H71.2764Z" fill="#F56242"/>
<path d="M101.265 50.2865L101.327 1.86975C101.335 1.36112 100.929 0.946254 100.421 0.946254H85.4473C84.9447 0.946254 84.7234 1.38385 84.5786 1.67368L62.8994 49.9911V49.9997C62.8994 49.9997 62.8936 50.008 62.8909 50.0109C62.6496 50.6048 63.1065 51.2414 63.7425 51.2414H74.2087C74.7736 51.2414 75.1485 51.0681 75.3329 50.7072L77.4108 45.6549C77.6663 44.9814 77.7146 44.919 78.4412 44.919H88.4421C89.1374 44.919 89.1518 44.9332 89.1403 45.6209L88.9161 50.3178C88.9076 50.8265 89.3135 51.2414 89.8217 51.2414H100.396C100.665 51.2414 100.918 51.1277 101.086 50.926C101.236 50.7468 101.299 50.5197 101.265 50.2865ZM82.739 34.121C82.6425 34.121 82.5658 34.1183 82.5035 34.1127C82.3472 34.0985 82.2422 33.9477 82.282 33.7944C82.3018 33.7232 82.3304 33.6296 82.3729 33.513L89.8728 14.7447C89.938 14.56 90.0203 14.3782 90.1056 14.202C90.2277 13.9491 90.3752 13.932 90.4206 14.1196C90.4604 14.2759 89.5604 33.3908 89.5604 33.3908C89.4896 34.1068 89.4583 34.1354 88.7601 34.1951L82.7475 34.1239H82.7334L82.739 34.121Z" fill="#F56242"/>
<path d="M122.594 0.946248H114.646C114.226 0.946248 113.755 1.17073 113.644 1.67652C113.644 1.67652 102.581 50.2554 102.581 50.261C102.533 50.4855 102.584 50.7072 102.732 50.8918C102.905 51.1077 103.192 51.2414 103.481 51.2414H113.417C113.951 51.2414 114.317 50.9771 114.416 50.5168C114.416 50.5168 115.62 45.0268 115.623 45.0099C115.708 44.5809 115.56 44.2484 115.18 44.0465C115.001 43.9528 114.822 43.859 114.646 43.7653L111.208 41.9552C110.987 41.8386 110.765 41.7222 110.547 41.6056C110.436 41.5489 110.368 41.4352 110.371 41.3103C110.374 41.1255 110.527 40.9749 110.711 40.9749L116.156 41.0005C117.786 41.0089 119.415 40.8925 121.016 40.5942C132.291 38.4886 139.78 29.353 139.996 16.9242C140.18 6.31674 134.327 0.940566 122.603 0.940566L122.594 0.946248ZM119.889 29.8588H119.676C119.199 29.8588 119.114 29.8048 119.1 29.7877C119.091 29.7764 122.24 15.7961 122.242 15.7762C122.322 15.3727 122.319 15.1397 122.072 15.0033C121.757 14.8271 117.161 12.3749 117.161 12.3749C117.05 12.3152 116.985 12.2015 116.988 12.0765C116.991 11.8947 117.141 11.7441 117.326 11.7441H124.593C126.855 11.8151 128.116 13.861 128.056 17.3561C127.951 23.4086 125.107 29.6456 119.889 29.8588Z" fill="#F56242"/>
<path d="M130.679 51.2414C132.315 51.2414 133.595 49.9826 133.595 48.2862C133.595 46.5898 132.315 45.3309 130.679 45.3309C129.044 45.3309 127.75 46.5898 127.75 48.2862C127.75 49.9826 129.041 51.2414 130.679 51.2414ZM128.445 48.2747C128.445 46.8342 129.3 45.8908 130.679 45.8908C132.059 45.8908 132.899 46.8313 132.899 48.2747C132.899 49.7183 132.059 50.6674 130.679 50.6674C129.3 50.6674 128.445 49.7269 128.445 48.2747ZM130.327 49.8604V48.7238H130.597C131.293 48.7238 130.989 49.7269 131.159 49.8604H132.121V49.812C131.94 49.7638 132.232 48.505 131.426 48.3715V48.3571C131.818 48.2747 132.07 47.9906 132.07 47.5645C132.07 46.9535 131.63 46.6237 130.921 46.6237H129.394V49.8604H130.327ZM130.327 48.039V47.2802H130.645C130.963 47.2802 131.145 47.3797 131.145 47.6581C131.145 47.9138 130.963 48.0361 130.645 48.0361H130.327V48.039Z" fill="#F56242"/>
</svg>
