<svg width="36" height="52" viewBox="0 0 36 52" fill="none" xmlns="http://www.w3.org/2000/svg">
<path d="M26.1072 19.4595C22.5116 19.4595 19.5976 22.3878 19.5976 26.0009C19.5976 29.614 22.5116 32.5423 26.1072 32.5423H26.3176C29.9132 32.5423 32.8272 29.614 32.8272 26.0009C32.8272 22.3878 29.9132 19.4595 26.3176 19.4595H26.1072ZM26.3176 35.7289H26.1072C20.7605 35.7289 16.4265 31.3737 16.4265 26.0009C16.4265 20.628 20.7605 16.2729 26.1072 16.2729H26.3176C31.6643 16.2729 35.9983 20.628 35.9983 26.0009C35.9983 31.3737 31.6643 35.7289 26.3176 35.7289ZM9.70651 35.7289C6.11099 35.7289 3.19525 38.6572 3.19525 42.2703C3.19525 45.8834 6.10927 48.8117 9.70478 48.8117C9.72376 48.8117 9.74446 48.8117 9.76344 48.8117H9.75999C9.76517 48.8117 9.77207 48.8117 9.77897 48.8117C13.4383 48.8117 16.4093 45.84 16.4283 42.1662V35.7289H9.70651ZM9.75827 52C9.73584 52 9.70823 52 9.68063 52C4.33394 52 0 47.6448 0 42.272C0 36.8991 4.33394 32.544 9.68063 32.544C9.68925 32.544 9.69788 32.544 9.70651 32.544H19.5976V42.1662C19.5769 47.6015 15.186 52 9.77552 52C9.77034 52 9.76517 52 9.75999 52H9.75827ZM9.70651 19.4595C6.11099 19.4595 3.19697 22.3878 3.19697 26.0009C3.19697 29.614 6.11099 32.544 9.70651 32.544L16.4265 32.5423V19.4612L9.70651 19.4595ZM19.5959 35.7289H9.70651C4.35982 35.7289 0.0258792 31.3737 0.0258792 26.0009C0.0258792 20.628 4.35982 16.2729 9.70651 16.2729H19.5976V35.7289H19.5959ZM9.70651 3.19008C6.11099 3.19008 3.19697 6.11836 3.19697 9.73147C3.19697 13.3446 6.11099 16.2729 9.70651 16.2729H16.4265V3.18834L9.70651 3.19008ZM19.5959 19.4595H9.70651C4.35982 19.4595 0.024154 15.1043 0.024154 9.72974C0.024154 4.35515 4.35809 0 9.70651 0H19.5976V19.4577L19.5959 19.4595ZM19.5959 16.2729H26.3176C29.9063 16.2642 32.8099 13.3394 32.8099 9.73147C32.8099 6.12356 29.9045 3.19875 26.3159 3.19008H19.5959V16.2729ZM26.3176 19.4595L16.4265 19.4612V0.00173361H26.3176C31.6643 0.00173361 36 4.35688 36 9.73147C36 15.1061 31.6661 19.4595 26.3176 19.4595Z" fill="#F56242"/>
</svg>
