<svg width="54" height="52" viewBox="0 0 54 52" fill="none" xmlns="http://www.w3.org/2000/svg">
<path d="M52.6961 37.4746C52.6961 37.4746 45.98 55.5782 22.8583 51.3638C22.4944 51.2961 22.1455 51.1696 21.7921 51.0629C21.7095 51.0387 21.626 51.0123 21.5433 50.9886C21.1962 50.8806 20.8525 50.7699 20.511 50.6509C20.4719 50.6373 20.4346 50.6245 20.395 50.6104C20.0839 50.5011 19.7744 50.385 19.469 50.2678C19.3891 50.2366 19.3095 50.2063 19.2299 50.1738C18.9008 50.0438 18.5734 49.908 18.2496 49.7661C18.1898 49.7398 18.1323 49.7134 18.0716 49.6867C17.7881 49.5607 17.5081 49.4301 17.2305 49.2975C17.1585 49.2609 17.086 49.2271 17.0134 49.1929C16.9738 49.1731 16.9313 49.1534 16.8908 49.1332C16.7116 49.0436 16.5366 48.9506 16.36 48.8581C16.2238 48.7879 16.0853 48.7194 15.95 48.6469C15.6999 48.5107 15.4534 48.3723 15.2081 48.2309C15.1171 48.179 15.0253 48.129 14.9352 48.0767C14.6021 47.8808 14.2725 47.6774 13.9477 47.4717C13.8559 47.4129 13.765 47.3506 13.6745 47.2898C13.4627 47.1528 13.2508 47.0157 13.0434 46.8726C13.0214 46.8576 13.0004 46.8419 12.9788 46.8264C12.8984 46.7719 12.822 46.7162 12.742 46.6582C12.5231 46.5062 12.3065 46.3507 12.0921 46.1925C11.9884 46.1144 11.8851 46.0358 11.7822 45.9571C11.588 45.809 11.3947 45.6574 11.203 45.5046C11.1077 45.4282 11.011 45.3527 10.9157 45.2754C10.6819 45.0829 10.4489 44.887 10.2209 44.6893C10.1778 44.6516 10.1321 44.6146 10.0882 44.5751C10.0837 44.5733 10.0807 44.5699 10.0758 44.5658C9.81699 44.3392 9.56295 44.1068 9.31112 43.8696C9.23514 43.8002 9.15948 43.726 9.08308 43.6531C8.89498 43.4725 8.70867 43.2906 8.52543 43.1061C8.44934 43.0314 8.37421 42.9559 8.30129 42.8803C8.06447 42.6369 7.83062 42.3932 7.60215 42.144C7.5938 42.1327 7.58545 42.1261 7.57541 42.1151C7.57139 42.1108 7.56569 42.105 7.56178 42.1001C7.32802 41.8427 7.0986 41.5796 6.87404 41.3156C6.81117 41.2413 6.74797 41.1654 6.68594 41.0903C6.51855 40.8886 6.3537 40.6875 6.19201 40.4836C6.12481 40.3988 6.0576 40.3133 5.99123 40.228C5.80979 39.9938 5.63046 39.758 5.45683 39.5181C5.42428 39.4733 5.38962 39.4293 5.35834 39.3854C5.35169 39.378 5.34608 39.37 5.34165 39.3626C5.14044 39.0845 4.94621 38.8012 4.75547 38.5174C4.69618 38.4304 4.64039 38.3408 4.58322 38.2511C4.4452 38.0412 4.30983 37.8312 4.1789 37.6186C4.11042 37.5097 4.04533 37.4004 3.97939 37.2909C3.86029 37.0924 3.74384 36.8938 3.63087 36.6935C3.5663 36.5802 3.50258 36.4695 3.44013 36.3531C3.40536 36.2916 3.36763 36.2282 3.33382 36.1638C3.27443 36.0565 3.22085 35.9446 3.16284 35.8352C3.07322 35.6634 2.98224 35.4908 2.89569 35.316C-0.756129 28.0175 -1.35203 19.0812 3.42914 12.2122L7.16095 7.48107C2.95053 15.6154 4.84286 25.5204 10.1101 32.7014C10.3003 32.9629 10.4951 33.2207 10.6941 33.4784C10.7557 33.5562 10.8175 33.6344 10.8791 33.7091C11.0447 33.92 11.2139 34.1282 11.3849 34.3343C11.4465 34.4067 11.5066 34.4778 11.5695 34.5525C11.7981 34.8223 12.0318 35.0901 12.2718 35.3515C12.2832 35.3642 12.2942 35.3757 12.3052 35.3879C12.532 35.6353 12.7631 35.8794 12.9982 36.1203C13.0712 36.194 13.1454 36.267 13.2197 36.3408C13.4043 36.5291 13.5929 36.712 13.7845 36.8938C13.857 36.9658 13.9299 37.0352 14.0051 37.1068C14.2639 37.3476 14.5249 37.5869 14.7908 37.8207C14.8185 37.8449 14.847 37.8672 14.8725 37.8896C15.1186 38.1035 15.3678 38.3118 15.62 38.5191C15.708 38.5907 15.7976 38.6623 15.8872 38.7334C16.0853 38.8928 16.2858 39.048 16.4875 39.2021C16.5838 39.276 16.6826 39.3511 16.7825 39.4248C17.0017 39.5874 17.2232 39.7473 17.447 39.9054C17.5229 39.9568 17.5968 40.0126 17.6737 40.0644C17.9049 40.2243 18.1405 40.3798 18.3769 40.5318C18.4657 40.5907 18.5536 40.6522 18.6432 40.7094C18.9693 40.9158 19.2989 41.1187 19.632 41.3146C19.7177 41.3639 19.8034 41.4099 19.8877 41.4574C20.1391 41.6028 20.391 41.7459 20.6475 41.883C20.7864 41.9603 20.9293 42.0302 21.0698 42.1044C21.2799 42.2125 21.49 42.3224 21.7026 42.426C21.783 42.4655 21.8612 42.5024 21.9399 42.5397C22.2111 42.6702 22.4831 42.7959 22.7582 42.9205C22.8233 42.9487 22.8865 42.9781 22.952 43.0062C23.2724 43.1464 23.5962 43.2808 23.9227 43.4094C24.0066 43.4428 24.0906 43.4749 24.175 43.5084C24.472 43.6234 24.7713 43.7351 25.0741 43.8417C25.1211 43.8584 25.1681 43.8755 25.2138 43.8922C25.5513 44.0083 25.8909 44.1189 26.2333 44.2235C26.3207 44.2507 26.4082 44.2772 26.4978 44.3035C26.8485 44.4071 27.197 44.5191 27.5565 44.6005C37.0433 46.7586 47.0553 44.8205 52.6961 37.4746ZM19.2265 25.8688C19.7451 26.6108 20.319 27.494 21.0067 28.0903C21.2555 28.3648 21.5165 28.6322 21.7824 28.8953C21.8492 28.9638 21.9182 29.0297 21.9872 29.0969C22.2447 29.3473 22.5084 29.5938 22.7791 29.8331C22.7905 29.8415 22.8007 29.853 22.8117 29.8609C22.8147 29.8644 22.8174 29.8652 22.8196 29.8687C23.1202 30.1314 23.4305 30.3849 23.7451 30.6339C23.815 30.6876 23.8844 30.7433 23.9552 30.7978C24.2711 31.0398 24.5933 31.2779 24.9238 31.5045C24.9339 31.5115 24.9418 31.5187 24.9519 31.5256C25.0973 31.6266 25.2459 31.7206 25.3931 31.8173C25.4643 31.863 25.5315 31.9121 25.6026 31.9552C25.839 32.1068 26.0778 32.254 26.3207 32.3954C26.3551 32.4165 26.3884 32.4341 26.4223 32.4538C26.631 32.5742 26.8441 32.6933 27.0568 32.8083C27.1306 32.8496 27.2063 32.8865 27.2818 32.926C27.4286 33.0025 27.5762 33.0811 27.7257 33.1553C27.7481 33.1659 27.7714 33.1763 27.793 33.1856C28.0975 33.3354 28.4046 33.4803 28.7189 33.6165C28.7857 33.6464 28.8551 33.6727 28.9233 33.7009C29.1743 33.8072 29.4273 33.9113 29.6818 34.0088C29.7898 34.0497 29.8994 34.0888 30.0066 34.1279C30.2381 34.2139 30.4697 34.2922 30.7035 34.3704C30.8095 34.4041 30.9131 34.4388 31.019 34.4714C31.3513 34.5741 31.6799 34.705 32.0266 34.7622C49.8788 37.7189 54 23.9796 54 23.9796C50.2845 29.328 43.0898 31.8798 35.4121 29.8882C35.0715 29.7985 34.7354 29.7006 34.4018 29.5956C34.2989 29.5647 34.1987 29.5314 34.0971 29.4975C33.8599 29.4206 33.6238 29.339 33.3897 29.2537C33.2829 29.2147 33.1758 29.1756 33.0706 29.1351C32.8143 29.0367 32.5608 28.9348 32.31 28.8286C32.2409 28.7987 32.1719 28.7723 32.1047 28.7415C31.7897 28.6043 31.4795 28.4602 31.1735 28.3091C31.0158 28.2321 30.8615 28.1507 30.7059 28.071C30.6162 28.0248 30.5262 27.9786 30.4365 27.9324C30.2379 27.8246 30.0402 27.7127 29.8454 27.5993C29.7992 27.5726 29.7509 27.5474 29.7039 27.5195C29.4626 27.3781 29.2244 27.2324 28.9885 27.0828C28.9159 27.0366 28.8456 26.9862 28.7731 26.9385C28.617 26.8378 28.462 26.7356 28.309 26.632C27.9803 26.4053 27.6604 26.1673 27.3444 25.9266C27.2715 25.8692 27.199 25.8133 27.1268 25.7559C23.7668 23.1034 21.1033 19.479 19.8358 15.3692C18.5091 11.1068 18.7953 6.3223 21.0949 2.43943L18.2696 6.42572C14.8125 11.3993 15.0001 18.057 17.697 23.3171C18.1499 24.199 18.6583 25.0542 19.2265 25.8688ZM38.043 19.7156C38.1903 19.7706 38.337 19.8192 38.4859 19.8696C38.551 19.8896 38.616 19.912 38.6815 19.9313C38.8916 19.9974 39.1003 20.0741 39.3175 20.1149C49.1753 22.0187 51.8485 15.0585 52.5604 14.0342C50.2181 17.4048 46.2828 18.214 41.4528 17.0426C41.0718 16.9496 40.6526 16.8118 40.2842 16.6818C39.8127 16.5138 39.3491 16.3222 38.8973 16.1055C38.0391 15.6936 37.2226 15.194 36.4642 14.6219C32.143 11.3443 29.4588 5.09181 32.2784 0L30.7525 2.10215C28.7144 5.10058 28.5144 8.82427 29.9281 12.1361C31.4196 15.6509 34.476 18.4086 38.043 19.7156Z" fill="#F56242"/>
</svg>
