<svg width="49" height="52" viewBox="0 0 49 52" fill="none" xmlns="http://www.w3.org/2000/svg">
<path d="M15.5817 43.931C15.5817 41.9968 13.9547 41.0297 10.7007 41.0297C7.58507 41.0297 6.02727 42.0358 6.02727 44.048C6.02727 46.0024 7.72274 46.9796 11.1137 46.9796C14.0909 46.9753 15.5795 45.9598 15.5795 43.9332L15.5817 43.931ZM13.8369 22.0208C13.8391 21.9666 13.8413 21.9037 13.8413 21.8409C13.8413 20.8009 13.51 19.8367 12.9446 19.0458L12.9556 19.061C12.3925 18.3329 11.509 17.8649 10.5151 17.8649C10.4467 17.8649 10.3804 17.8671 10.3142 17.8714H10.323C7.87734 17.8714 6.65451 19.274 6.65451 22.0793C6.65451 24.6909 7.87734 25.9968 10.323 25.9968C12.6671 25.9982 13.8391 24.6736 13.8391 22.0229L13.8369 22.0208ZM21.7878 12.6192V18.4824C21.0811 18.7136 20.3022 18.9259 19.4511 19.1195C19.7427 19.841 19.9172 20.6774 19.9238 21.5527V21.5571C19.926 21.6329 19.9282 21.7217 19.9282 21.8127C19.9282 24.103 19.1132 26.2048 17.7505 27.858L17.766 27.8407C16.3238 29.5459 14.2963 30.7311 11.9905 31.0973L11.9353 31.1038C11.2528 31.1991 10.6499 31.4808 10.164 31.8903L10.1684 31.886C9.80618 32.2825 9.58532 32.809 9.58532 33.3876C9.58532 33.4526 9.58753 33.5154 9.59416 33.5782V33.5696V33.6129C9.59416 34.1893 9.85036 34.7071 10.2589 35.0625L10.2612 35.0646C10.7404 35.4763 11.3124 35.7948 11.9441 35.9855L11.9772 35.9942C12.6766 36.2166 13.4504 36.429 14.2985 36.6312C15.1466 36.8334 15.9947 37.0804 16.8428 37.3722C17.7306 37.6756 18.497 38.0439 19.2104 38.4881L19.164 38.4621C19.8884 38.928 20.4693 39.5541 20.8669 40.2908L20.8801 40.3168C21.3019 41.1034 21.5493 42.0351 21.5493 43.0231C21.5493 43.0773 21.5493 43.1293 21.5471 43.1835V43.1748C21.5515 49.0583 17.9773 52 10.8243 52C10.7934 52 10.7581 52 10.7228 52C9.39759 52 8.10556 51.8678 6.8577 51.6165L6.98138 51.6382C5.68715 51.376 4.54088 50.9643 3.47854 50.4161L3.55143 50.4508C2.46921 49.8982 1.59019 49.0857 0.97841 48.0998L0.96295 48.0717C0.357793 47.0663 0 45.8551 0 44.5615C0 44.4965 2.57115e-10 44.4315 0.0022086 44.3665V44.3752C0.0022086 41.1828 1.79706 39.006 5.38678 37.8446V37.7276C4.18751 37.019 3.39683 35.7493 3.39683 34.2998C3.39683 34.2196 3.39904 34.1394 3.40345 34.0614V34.0723C3.40345 31.9633 4.02481 30.6379 5.26751 30.0963V29.9793C3.71045 29.3921 2.47142 28.2805 1.75142 26.8678L1.73375 26.831C0.881231 25.4594 0.36221 23.8062 0.320247 22.0381V22.0273C0.318038 21.9558 0.318038 21.8734 0.318038 21.7889C0.318038 19.2451 1.39584 16.9462 3.12738 15.3103L3.12959 15.3081C4.8545 13.6462 7.22212 12.6192 9.8349 12.6192C9.92103 12.6192 10.0072 12.6214 10.0933 12.6235H10.0801H10.1485C12.0612 12.6235 13.8545 13.1305 15.3962 14.0146L15.3476 13.9886C17.6931 13.9257 19.9017 13.4274 21.9204 12.578L21.8033 12.6214L21.7878 12.6192ZM31.1943 38.1848H24.6325C24.712 37.3152 24.7518 36.0194 24.7518 34.2976V16.6255C24.7518 14.8069 24.712 13.569 24.6325 12.9117H31.2009C31.1214 13.5502 31.0816 14.7498 31.0816 16.5107V34.2998C31.0816 36.0216 31.1214 37.3173 31.2009 38.1869L31.1943 38.1848ZM48.9713 31.7408V37.4372C47.5732 38.1544 45.9168 38.5748 44.161 38.5748C44.0439 38.5748 43.9246 38.5726 43.8076 38.5683H43.8253C43.77 38.5704 43.7038 38.5704 43.6375 38.5704C42.5641 38.5704 41.5416 38.3559 40.6117 37.9681L40.6625 37.9876C39.8431 37.6517 39.1496 37.1577 38.5975 36.5424L38.5931 36.5359C38.0741 35.8967 37.6721 35.1405 37.4358 34.3171L37.4247 34.2716C37.1707 33.4981 36.9786 32.5924 36.8814 31.6585L36.877 31.6022C36.7975 30.7499 36.7577 29.7539 36.7577 28.6142V18.4218H36.8152V18.3048C36.6767 18.3048 36.4898 18.2947 36.2542 18.2744C36.0186 18.2542 35.8419 18.2441 35.7241 18.2441C35.0947 18.2614 34.4917 18.3243 33.9064 18.4283L33.9793 18.4174V12.9052H36.8196V10.6994C36.8218 10.6279 36.8218 10.5434 36.8218 10.4589C36.8218 9.6334 36.7577 8.82087 36.6318 8.02783L36.6429 8.11667H43.357C43.2378 9.28022 43.1693 10.6301 43.1693 11.9973C43.1693 12.3158 43.1737 12.6344 43.1803 12.9507V12.903H48.2336V18.4174C47.9377 18.4174 47.5092 18.3987 46.9482 18.3611C46.3872 18.3235 45.9683 18.3048 45.6915 18.3048H43.1848V28.8959C43.1848 31.4295 44.0424 32.6964 45.7578 32.6964H45.8373C47.0123 32.6964 48.1033 32.3389 49 31.7278L48.9823 31.7387L48.9713 31.7408ZM31.9386 4.26201V4.31185C31.9386 5.43206 31.4991 6.45044 30.7813 7.21313L30.7835 7.21097C30.1076 7.9845 29.1093 8.47419 27.994 8.47419C27.9763 8.47419 27.9587 8.47419 27.941 8.47419C27.9255 8.47419 27.9101 8.47419 27.8902 8.47419C26.7572 8.47419 25.7412 7.98667 25.0477 7.2153L25.0433 7.21097C24.3101 6.45694 23.8595 5.43206 23.8595 4.30535C23.8595 4.29018 23.8595 4.27718 23.8595 4.26201V4.26418C23.8595 4.24901 23.8595 4.23168 23.8595 4.21434C23.8595 3.08113 24.3034 2.04759 25.0301 1.27622L25.0279 1.27839C25.7214 0.494021 26.7373 0 27.8725 0H27.9454H27.941H28.005C29.127 0 30.1297 0.500521 30.7923 1.28705L30.7967 1.29355C31.5035 2.06925 31.9341 3.09846 31.9341 4.22734V4.27068V4.26851L31.9386 4.26201Z" fill="#F56242"/>
</svg>
