<svg width="69" height="52" viewBox="0 0 69 52" fill="none" xmlns="http://www.w3.org/2000/svg">
<path d="M59.398 29.8926C59.4822 29.8904 59.5814 29.8882 59.6828 29.8882C61.4819 29.8882 63.184 30.3086 64.6941 31.0583L64.6272 31.028C66.0036 31.7018 67.134 32.6985 67.9516 33.9206L67.971 33.9509C68.616 34.8956 69 36.0635 69 37.3202C69 37.4112 68.9978 37.5022 68.9935 37.5911V37.5781C68.9267 38.8326 68.3593 39.9398 67.4878 40.7155L67.4834 40.7199C67.0067 41.19 66.4307 41.5584 65.79 41.7924L65.7576 41.8032C65.3981 41.8755 65.2003 41.8213 65.1644 41.6407C65.1284 41.4602 65.2902 41.2616 65.6498 41.0449C66.6249 40.4512 67.3303 39.4935 67.587 38.3646L67.5935 38.3364C67.5999 38.2454 67.6043 38.1393 67.6043 38.0309C67.6043 37.3571 67.4446 36.72 67.162 36.1567L67.1728 36.1805C66.7047 35.199 66.0057 34.3929 65.145 33.8101L65.1234 33.7971C63.8355 32.965 62.2909 32.419 60.6298 32.2825L60.5953 32.2803C60.0301 32.1958 59.3786 32.1482 58.7142 32.1482C56.9862 32.1482 55.3359 32.4754 53.8172 33.0712L53.9078 33.0387C54.2206 33.7732 54.4169 34.6248 54.445 35.5175V35.5283C54.4104 37.3592 53.431 38.9518 51.9749 39.8402L51.9512 39.8532C51.2824 40.3298 50.5187 40.748 49.7055 41.073L49.63 41.099C49.1359 41.3417 48.5556 41.4826 47.943 41.4826C47.8718 41.4826 47.8028 41.4804 47.7337 41.4761H47.7445C46.3797 41.1886 46.0561 39.9969 46.7737 37.9009C47.0865 36.9887 47.5245 36.1978 48.0789 35.5023L48.0659 35.5175C48.7757 34.5858 49.5544 33.7689 50.4152 33.0452L50.4389 33.0257L50.2275 32.7094C49.8327 32.0333 49.4703 31.2468 49.1791 30.4256L49.1489 30.3259C48.9332 29.6037 48.7534 28.9183 48.6096 28.2697L48.5017 27.5113L47.4231 29.5676C46.4883 31.301 45.5894 32.817 44.7265 34.1156L44.4029 34.6573C44.7653 35.5413 45.0328 36.5662 45.1536 37.6366L45.1579 37.6907C45.1666 37.7926 45.1709 37.9139 45.1709 38.0353C45.1709 39.6777 44.3641 41.1294 43.1258 42.0156L43.1107 42.0264C42.5196 42.3926 41.8142 42.7718 41.0829 43.1098L40.9534 43.164C40.1919 43.4955 39.3096 43.7122 38.3842 43.7598H38.3647C38.2935 43.7642 38.2094 43.7685 38.1253 43.7685C37.586 43.7685 37.0747 43.645 36.6174 43.4261L36.6389 43.4348C36.365 43.1986 36.1924 42.8519 36.1924 42.4641C36.1924 42.2669 36.2377 42.0784 36.3175 41.9116L36.3132 41.9202C37.1761 40.7047 38.026 39.6473 38.9299 38.6376L38.9019 38.6701L41.2749 35.6388L40.8456 34.6638C40.5004 34.0268 40.1704 33.2749 39.905 32.4949L39.8748 32.3908C39.6591 31.6686 39.4793 30.9832 39.3355 30.3346L39.2276 29.5762L38.149 32.1763C37.2875 34.1972 36.4965 35.9299 35.776 37.3744C34.7017 39.5411 33.8028 41.2023 33.0794 42.3579L32.8637 42.6829C32.0023 44.0538 31.1753 44.7392 30.3829 44.7392C29.5904 44.7392 29.0533 44.2336 28.7714 43.2225C28.5643 42.4771 28.4435 41.6212 28.4435 40.7372C28.4435 40.6592 28.4435 40.5812 28.4457 40.5032V40.514L28.6614 38.9973V39.1056C28.0861 40.4765 27.5108 41.7397 26.9356 42.8953C26.5537 43.645 26.1611 44.2842 25.721 44.8865L25.7491 44.8454C25.3047 45.3134 24.6791 45.6037 23.9866 45.6037C23.9801 45.6037 23.9758 45.6037 23.9693 45.6037C23.924 45.6081 23.8723 45.6081 23.8205 45.6081C23.2747 45.6081 22.7785 45.4001 22.4032 45.0599L22.4053 45.062C21.6524 44.2863 21.0937 43.3178 20.8046 42.2366L20.7938 42.1911C20.4401 41.2052 20.2373 40.0655 20.2373 38.8781C20.2373 38.7243 20.2416 38.5726 20.2481 38.4231V38.4448C20.4185 36.72 20.7615 35.1405 21.2641 33.6346L21.2188 33.7884L17.3379 36.0635V36.1718C17.901 37.3462 18.231 38.7243 18.231 40.1803C18.231 40.4469 18.2202 40.7112 18.1987 40.9712L18.2008 40.9365C18.0865 43.1683 17.3767 45.2115 16.2312 46.9385L16.2593 46.8951C15.0577 48.8105 13.3254 50.2904 11.2674 51.1463L11.1962 51.1723C10.0377 51.6945 8.68298 52 7.25918 52C6.35745 52 5.4816 51.8787 4.65321 51.649L4.72224 51.6642C4.03624 51.4323 3.47535 50.973 3.1194 50.3793L3.11293 50.3663C2.61029 49.6339 2.29317 48.739 2.24355 47.7748V47.7618C2.21982 47.543 2.20688 47.2895 2.20688 47.0316C2.20688 45.9201 2.45928 44.867 2.91015 43.9288L2.89073 43.9722C4.129 41.8509 5.84186 40.1327 7.88695 38.9236L7.95167 38.889C9.39919 37.8814 11.0624 36.9042 12.799 36.0527L13.0277 35.9508L13.567 35.6258C12.9198 35.1202 11.7333 34.2535 10.0075 33.0257C7.70142 31.4743 5.69733 29.9077 3.80757 28.2133L3.8615 28.261C2.0343 26.6814 0.703267 24.571 0.105706 22.1681L0.0884477 22.0858C0.0323589 21.7521 0 21.3686 0 20.9785C0 19.7565 0.312803 18.6081 0.860747 17.6092L0.843489 17.6461C2.05156 15.0373 3.72559 12.838 5.7793 11.07L5.80519 11.0483C8.02717 8.94004 10.5425 7.1048 13.2736 5.6184L13.4613 5.52523C15.9012 4.11034 18.7509 2.79512 21.7215 1.73991L22.0882 1.62723C24.8473 0.613192 28.0336 0.0195008 31.3558 0.00866703H31.3601C31.5111 0.00433351 31.6902 0 31.8692 0C34.5464 0 37.079 0.621859 39.3312 1.72907L39.232 1.68357C41.1735 2.57194 42.6275 4.24468 43.2099 6.2901L43.2229 6.3421C43.4019 7.03979 43.5033 7.84149 43.5033 8.66703C43.5033 10.0364 43.2207 11.3408 42.7138 12.5239L42.7375 12.461C41.8142 14.7079 40.5004 16.6212 38.8609 18.1964L38.8544 18.2029C37.1933 19.8562 35.2022 21.1779 32.991 22.0598L32.8724 22.1009C30.5555 23.0998 27.8653 23.7282 25.0415 23.8322L25.0005 23.8343C24.5863 23.882 24.1074 23.908 23.622 23.908C22.3449 23.908 21.1131 23.7238 19.9482 23.3793L20.041 23.4031C18.999 23.0695 18.0994 22.5516 17.3358 21.8799L17.3444 21.8864C16.8094 21.4487 16.3736 20.9092 16.063 20.296L16.05 20.2678C15.8343 19.69 15.8163 19.347 15.9961 19.2386C16.1759 19.1303 16.3017 19.1122 16.3736 19.1845L16.9129 19.7262C17.5148 20.2873 18.2332 20.7294 19.027 21.011L19.0702 21.024C20.1618 21.4054 21.4216 21.6264 22.7311 21.6264C23.1517 21.6264 23.5659 21.6047 23.9736 21.5592L23.924 21.5636C27.4145 21.1497 30.5619 19.9537 33.2779 18.1553L33.1981 18.2051C35.4934 16.8335 37.3508 14.9485 38.6581 12.7015L38.697 12.6279C39.3463 11.6702 39.7346 10.4871 39.7346 9.21305C39.7346 8.43085 39.5879 7.68115 39.3204 6.99212L39.3355 7.03329C38.5287 5.75274 37.2235 4.85137 35.7005 4.60219L35.6703 4.59786C34.4881 4.30535 33.1291 4.13634 31.7333 4.13634C30.6094 4.13634 29.5092 4.24468 28.4457 4.45269L28.5535 4.43535C24.9142 5.09405 21.6611 6.22293 18.6603 7.77432L18.8566 7.68115C10.0147 12.1591 5.44924 16.7447 5.16017 21.4379V21.5441C5.16017 23.4356 5.90011 25.1539 7.10602 26.4236L7.10386 26.4214C8.47804 27.9555 9.99675 29.3097 11.6557 30.4798L11.7398 30.5361C13.2521 31.6715 14.5896 32.8437 15.8343 34.1091L15.8365 34.1134L16.0522 34.3301L22.9554 30.5404C23.7428 29.3964 24.6899 28.43 25.7771 27.65L25.8116 27.6262C26.6745 26.8981 27.7704 26.4236 28.972 26.3283L28.9914 26.3261C29.0346 26.3218 29.0842 26.3218 29.136 26.3218C29.9406 26.3218 30.631 26.8093 30.9287 27.507L30.933 27.52C31.1595 28.0292 31.2911 28.625 31.2911 29.2512C31.2911 29.4419 31.2781 29.6304 31.2544 29.8167L31.2566 29.7951L31.0473 30.8633L31.3709 30.6466C31.5953 30.4754 31.8779 30.3736 32.1842 30.3736C32.3783 30.3736 32.5617 30.4148 32.7278 30.4884L32.7192 30.4841C33.1334 30.5924 33.4332 30.9651 33.4332 31.4071C33.4332 31.483 33.4246 31.5566 33.4073 31.6282L33.4095 31.6216L33.0859 32.8134C32.4387 35.412 32.008 37.2892 31.7937 38.4448C31.6859 38.8196 31.6255 39.2508 31.6255 39.6972C31.6255 39.7903 31.6276 39.8813 31.6341 39.9723V39.9593C31.67 40.3927 31.724 40.6094 31.7959 40.6094C31.8678 40.6094 32.0109 40.3927 32.2252 39.9593L32.5488 39.201C32.6207 39.201 32.6207 39.2371 32.5488 39.3093L33.7353 36.8175C36.5397 30.6091 38.0491 27.1422 38.2633 26.4171L38.9105 24.3608C38.9824 24.2164 39.2701 24.0727 39.7734 23.9297C40.2847 23.791 40.8693 23.7108 41.4734 23.7108C41.523 23.7108 41.5726 23.7108 41.62 23.713H41.6136C42.6203 23.713 43.1237 23.9658 43.1237 24.4714L43.0158 25.013C42.7742 25.6804 42.5347 26.5146 42.3492 27.3683L42.3255 27.5048C42.2823 27.7843 42.2564 28.105 42.2564 28.4344C42.2564 28.872 42.2996 29.2989 42.3837 29.7127L42.3772 29.6716L42.4851 30.1028C42.7051 31.0063 43.0395 31.7993 43.4774 32.523L43.4559 32.4862C44.3173 31.0431 45.1443 29.5632 45.9367 28.0465C46.5623 27 47.1448 25.7866 47.6129 24.5169L47.6625 24.3652C47.8243 23.5483 48.0098 22.8593 48.2364 22.1876L48.2018 22.3089C48.2738 22.0923 48.5808 21.9297 49.123 21.8214C49.6364 21.7174 50.2254 21.6589 50.8272 21.6589H50.9049H50.9006C51.9073 21.6589 52.4445 21.9117 52.5121 22.4173L52.2963 22.8485C52.0396 23.5765 51.8153 24.4519 51.6643 25.3511L51.6513 25.4486C51.6319 25.6587 51.6189 25.9014 51.6189 26.1484C51.6189 26.6663 51.6707 27.1733 51.7678 27.663L51.7592 27.6132V28.0443C52.0073 28.989 52.3761 29.8189 52.8594 30.5708L52.8378 30.5361L53.1614 31.2945C54.9627 30.4061 57.0811 29.8861 59.3204 29.8861H59.4045H59.4002L59.398 29.8926ZM13.1485 45.6081C14.6478 44.0523 15.5733 41.9289 15.5733 39.5888C15.5733 38.6853 15.4352 37.8142 15.1806 36.9952L15.1979 37.0559L13.4721 38.1393C11.7118 39.1468 10.1887 40.2713 8.81026 41.5497L8.82751 41.5346C7.78124 42.5009 7.00894 43.7512 6.62926 45.1617L6.61632 45.2159C6.29273 46.552 6.45453 47.4188 7.1017 47.816C7.49648 47.998 7.96029 48.1042 8.44568 48.1042C8.97636 48.1042 9.47901 47.9785 9.92124 47.7532L9.90183 47.7618C11.1832 47.2938 12.2683 46.5506 13.1312 45.5994L13.1377 45.5929L13.1485 45.6081ZM27.5957 35.6323C27.9552 34.6934 28.3507 33.5739 28.7822 32.2738C29.3575 30.5404 29.5552 29.53 29.3754 29.2426C29.1957 28.9551 28.8541 28.919 28.3507 29.1342C27.751 29.4267 27.2484 29.8276 26.8471 30.3194L26.8406 30.3281C26.3919 30.898 25.9648 31.535 25.5851 32.2045L25.5463 32.2782C25.1105 32.9954 24.7416 33.8209 24.4849 34.6963L24.4655 34.7699C24.0492 35.9032 23.8075 37.214 23.8075 38.5791C23.8075 38.7633 23.8119 38.9453 23.8205 39.1273V39.1013C23.8924 40.5444 24.1225 41.3208 24.5108 41.4306C24.8991 41.5403 25.3485 41.0167 25.8591 39.8597C26.3531 38.9648 26.7932 37.9247 27.1211 36.8349L27.1513 36.7179C27.3656 36.2065 27.5123 35.8447 27.5914 35.6323H27.5957ZM39.5599 41.3742C41.0548 40.7004 42.1076 39.2811 42.2543 37.6019L42.2564 37.5846V37.4762L41.0699 38.993L38.9148 41.3764C38.8825 41.4024 38.8609 41.4414 38.8609 41.4847C38.8609 41.5281 38.8825 41.5671 38.9127 41.5931C38.9817 41.6638 39.1974 41.5916 39.5599 41.3764V41.3742ZM48.8339 39.3158C50.4648 38.8478 51.6384 37.3636 51.6384 35.6063C51.6384 35.5781 51.6384 35.55 51.6384 35.5218V35.5261C51.6168 35.0928 51.5391 34.6854 51.4119 34.2998L51.4205 34.3323C50.5813 35.082 49.8931 35.979 49.3948 36.9909L49.3711 37.0407C48.7225 38.3393 48.5413 39.0962 48.8275 39.3115L48.8339 39.3158Z" fill="#F56242"/>
</svg>
